<?xml version="1.0" standalone="no"?>
<!DOCTYPE svg PUBLIC "-//W3C//DTD SVG 1.1//EN" "http://www.w3.org/Graphics/SVG/1.1/DTD/svg11.dtd" >
<!--
2013-9-30: Created.
-->
<svg>
<metadata>
Created by iconfont
</metadata>
<defs>

<font id="iconfont" horiz-adv-x="1024" >
  <font-face
    font-family="iconfont"
    font-weight="500"
    font-stretch="normal"
    units-per-em="1024"
    ascent="896"
    descent="-128"
  />
    <missing-glyph />
    
    <glyph glyph-name="fuwuqiwailian" unicode="&#59077;" d="M811.752727 553.425455h135.912728c20.48 0 39.098182-9.309091 53.992727-22.341819 13.032727-13.032727 22.341818-33.512727 22.341818-53.992727v-485.934545c0-20.48-9.309091-39.098182-22.341818-52.130909-14.894545-14.894545-33.512727-22.341818-53.992727-22.341819h-135.912728c-20.48 0-39.098182 7.447273-53.992727 22.341819-13.032727 13.032727-22.341818 31.650909-22.341818 52.130909V477.090909c0 20.48 9.309091 40.96 22.341818 53.992727 14.894545 13.032727 33.512727 22.341818 53.992727 22.341819z m135.912728-33.512728h-135.912728c-11.170909 0-22.341818-3.723636-29.789091-11.170909-7.447273-9.309091-13.032727-18.618182-13.032727-31.650909v-485.934545c0-11.170909 5.585455-22.341818 13.032727-29.789091s18.618182-13.032727 29.789091-13.032728h135.912728c11.170909 0 22.341818 5.585455 29.78909 13.032728s13.032727 18.618182 13.032728 29.789091V477.090909c0 13.032727-5.585455 22.341818-13.032728 31.650909-7.447273 7.447273-18.618182 11.170909-29.78909 11.170909zM76.334545 469.643636h135.912728c20.48 0 39.098182-7.447273 53.992727-22.341818 13.032727-13.032727 22.341818-31.650909 22.341818-53.992727v-400.290909c0-22.341818-9.309091-40.96-22.341818-53.992727-14.894545-14.894545-33.512727-22.341818-53.992727-22.341819H76.334545c-20.48 0-39.098182 7.447273-53.992727 22.341819-13.032727 13.032727-22.341818 31.650909-22.341818 53.992727V393.309091c0 22.341818 9.309091 40.96 22.341818 53.992727 14.894545 14.894545 33.512727 22.341818 53.992727 22.341818z m135.912728-31.650909H76.334545c-11.170909 0-22.341818-5.585455-29.78909-13.032727-7.447273-9.309091-13.032727-18.618182-13.032728-31.650909v-400.290909c0-13.032727 5.585455-24.203636 13.032728-31.650909s18.618182-13.032727 29.78909-13.032728h135.912728c11.170909 0 22.341818 5.585455 29.789091 13.032728s13.032727 18.618182 13.032727 31.650909V393.309091c0 13.032727-5.585455 22.341818-13.032727 31.650909-7.447273 7.447273-18.618182 13.032727-29.789091 13.032727zM74.472727 93.556364h154.530909v-96.814546H59.578182v96.814546h14.894545z m122.88-31.650909H91.229091v-33.512728h106.123636v33.512728zM74.472727 242.501818h154.530909v-98.676363H59.578182v98.676363h14.894545z m122.88-33.512727H91.229091v-31.650909h106.123636v31.650909zM74.472727 389.585455h154.530909v-98.676364H59.578182v98.676364h14.894545z m122.88-31.65091H91.229091v-33.512727h106.123636v33.512727zM809.890909 227.607273h154.530909v-98.676364h-169.425454v98.676364h14.894545z m122.88-33.512728h-106.123636v-31.650909h106.123636v31.650909zM809.890909 357.934545h154.530909v-96.814545h-169.425454v96.814545h14.894545z m122.88-31.650909h-106.123636v-33.512727h106.123636v33.512727zM809.890909 490.123636h154.530909v-98.676363h-169.425454v98.676363h14.894545z m122.88-33.512727h-106.123636v-31.650909h106.123636v31.650909zM809.890909 95.418182h154.530909v-98.676364h-169.425454v98.676364h14.894545z m122.88-33.512727h-106.123636v-31.65091h106.123636v31.65091zM122.88 592.523636V856.901818h778.24v-178.734545h-42.821818V814.08H165.701818v-221.556364zM143.36 480.814545l33.512727 55.854546 31.650909 55.854545H80.058182l31.650909-55.854545zM880.64 566.458182l31.650909 55.854545 31.650909 55.854546h-128.465454l31.650909-55.854546zM335.127273 65.629091h368.64v-137.774546H318.370909v137.774546h16.756364z m336.989091-31.650909H350.021818v-74.472727h322.094546v74.472727zM590.196364 4.189091h70.749091v-16.756364h-70.749091zM405.876364-21.876364v35.374546h16.756363v-35.374546zM370.501818-21.876364v35.374546h16.756364v-35.374546zM335.127273 171.752727h368.64v-137.774545H318.370909v137.774545h16.756364z m336.989091-31.650909H350.021818v-74.472727h322.094546v74.472727zM590.196364 110.312727h70.749091v-16.756363h-70.749091zM405.876364 84.247273v35.374545h16.756363v-35.374545zM370.501818 84.247273v35.374545h16.756364v-35.374545zM335.127273 277.876364h368.64v-137.774546H318.370909v137.774546h16.756364z m336.989091-31.650909H350.021818v-74.472728h322.094546v74.472728zM590.196364 216.436364h70.749091v-16.756364h-70.749091zM405.876364 190.370909v35.374546h16.756363v-35.374546zM370.501818 190.370909v35.374546h16.756364v-35.374546zM335.127273 384h368.64v-137.774545H318.370909v137.774545h16.756364z m336.989091-31.650909H350.021818v-74.472727h322.094546v74.472727zM590.196364 322.56h70.749091v-16.756364h-70.749091zM405.876364 296.494545v35.374546h16.756363v-35.374546zM370.501818 296.494545v35.374546h16.756364v-35.374546zM335.127273 490.123636h368.64v-137.774545H318.370909v137.774545h16.756364z m336.989091-31.650909H350.021818v-74.472727h322.094546v74.472727zM590.196364 428.683636h70.749091v-16.756363h-70.749091zM405.876364 402.618182v35.374545h16.756363v-35.374545zM370.501818 402.618182v35.374545h16.756364v-35.374545zM335.127273 592.523636h368.64v-139.636363H318.370909v139.636363h16.756364z m336.989091-33.512727H350.021818v-72.610909h322.094546v72.610909zM590.196364 531.083636h70.749091v-16.756363h-70.749091zM405.876364 505.018182v35.374545h16.756363v-35.374545zM370.501818 505.018182v35.374545h16.756364v-35.374545z"  horiz-adv-x="1024" />

    
    <glyph glyph-name="duiwailianjie" unicode="&#59076;" d="M72.610909 467.781818h143.36c20.48 0 37.236364-7.447273 50.269091-20.48s22.341818-31.650909 22.341818-52.130909v-409.6c0-18.618182-9.309091-37.236364-22.341818-50.269091s-29.789091-22.341818-50.269091-22.341818H72.610909c-20.48 0-37.236364 9.309091-50.269091 22.341818S0-33.04727300000002 0-14.429090999999971V395.170909c0 20.48 9.309091 39.098182 22.341818 52.130909s29.789091 20.48 50.269091 20.48z m143.36-33.512727H72.610909c-11.170909 0-20.48-3.723636-27.927273-11.170909s-11.170909-16.756364-11.170909-27.927273v-409.6c0-11.170909 3.723636-20.48 11.170909-27.927273s16.756364-11.170909 27.927273-11.170909h143.36c11.170909 0 20.48 3.723636 27.927273 11.170909s11.170909 16.756364 11.170909 27.927273V395.170909c0 11.170909-3.723636 20.48-11.170909 27.927273s-16.756364 11.170909-27.927273 11.170909zM76.334545 370.967273h152.669091v-96.814546H59.578182v96.814546h16.756363z m121.018182-31.650909H91.229091v-33.512728h106.123636v33.512728zM76.334545 240.64h152.669091v-98.676364H59.578182v98.676364h16.756363z m121.018182-33.512727H91.229091v-31.650909h106.123636v31.650909zM76.334545 108.45090900000002h152.669091v-98.676364H59.578182v98.676364h16.756363z m121.018182-33.512727H91.229091v-31.650909h106.123636v31.650909zM808.029091 551.563636h143.36c20.48 0 37.236364-7.447273 50.269091-20.48s22.341818-31.650909 22.341818-52.130909v-493.381818c0-18.618182-9.309091-37.236364-22.341818-50.269091s-29.789091-22.341818-50.269091-22.341818h-143.36c-20.48 0-37.236364 9.309091-50.269091 22.341818s-22.341818 31.650909-22.341818 50.269091V478.952727c0 20.48 9.309091 39.098182 22.341818 52.130909s29.789091 20.48 50.269091 20.48z m143.36-33.512727h-143.36c-11.170909 0-20.48-3.723636-27.927273-11.170909s-11.170909-16.756364-11.170909-27.927273v-493.381818c0-11.170909 3.723636-20.48 11.170909-27.927273s16.756364-11.170909 27.927273-11.170909h143.36c11.170909 0 20.48 3.723636 27.927273 11.170909s11.170909 16.756364 11.170909 27.927273V478.952727c0 11.170909-3.723636 20.48-11.170909 27.927273s-16.756364 11.170909-27.927273 11.170909zM811.752727 478.952727h152.669091v-98.676363h-169.425454v98.676363h16.756363z m121.018182-33.512727h-106.123636v-31.650909h106.123636v31.650909zM811.752727 346.763636h152.669091v-96.814545h-169.425454v96.814545h16.756363z m121.018182-31.650909h-106.123636v-33.512727h106.123636v33.512727zM811.752727 216.43636400000003h152.669091v-98.676364h-169.425454v98.676364h16.756363z m121.018182-33.512728h-106.123636v-31.650909h106.123636v31.650909zM811.752727 84.24727299999995h152.669091v-98.676364h-169.425454v98.676364h16.756363z m121.018182-33.512728h-106.123636v-31.650909h106.123636v31.650909zM675.84-87.03999999999996H333.265455V635.345455h357.46909v-722.385455h-14.894545z m-310.923636 33.512727h294.167272V601.832727H364.916364v-655.36zM394.705455 542.254545h249.483636v-121.018181H379.810909v121.018181h14.894546z m217.832727-31.650909H411.461818v-57.716363h201.076364v57.716363zM614.4 32.116363999999976v-44.683637h-33.512727v44.683637zM552.96 32.116363999999976v-44.683637h-33.512727v44.683637zM128.465455 855.04h767.06909v-137.774545h48.407273l-31.650909-55.854546-31.650909-55.854545-33.512727 55.854545-31.650909 55.854546h48.407272V821.527273H160.116364v-225.28h48.407272l-31.650909-55.854546-31.650909-55.854545-33.512727 55.854545-31.650909 55.854546h48.407273z"  horiz-adv-x="1024" />

    
    <glyph glyph-name="hengxianglianjie" unicode="&#59074;" d="M1233.04201 127.13646L953.951781 313.334229v-116.288886h-199.680688l-122.20121 149.456041-90.140142-110.233786 125.23392-153.164789c13.211128-16.240398 33.022658-25.594839 53.940277-25.59484h232.710227v-116.429942l279.227845 186.058433zM302.479774 708.83892H69.769547c-38.530735 0-69.769547-31.238812-69.769547-69.767827 0-38.530735 31.238812-69.769547 69.769547-69.769548l199.543072 0.134176 122.208091-149.44916 90.134981 110.228625-125.2322 153.171671c-13.209407 16.099341-33.026099 25.452063-53.943717 25.452063z m0 0M1233.04201 639.071093L953.951781 825.127805v-116.288885H721.244994c-21.058675 0-40.871926-9.352721-53.940277-25.59312L269.312619 197.047064h-199.543072c-38.530735 0-69.769547-31.238812-69.769547-69.769548s31.238812-69.769547 69.769547-69.769547H302.479774c20.917619 0 40.73431 9.354442 53.943717 25.59484l397.706545 486.198736h199.684129v-116.421341L1233.04201 639.071093z m0 0"  horiz-adv-x="1233" />

    
    <glyph glyph-name="rizhi" unicode="&#59075;" d="M881.671394 428.68559L716.074713 141.827819l1.941423-113.599683 99.314009 55.199846L982.93254 370.287181l-101.261146 58.398409z m58.515551 101.259717l-38.972748-67.545526 101.261146-58.39698 38.967034 67.538383-101.255432 58.404123z m-373.487529-364.227555H237.560334c-20.228515 0-36.574184-16.345669-36.574184-36.575612 0-20.227086 16.345669-36.567041 36.574184-36.567041h329.139082c20.228515 0 36.574184 16.339954 36.574183 36.567041 0 20.228515-16.345669 36.575612-36.574183 36.575612zM237.560334 385.141425c-20.228515 0-36.574184-16.338526-36.574184-36.56704s16.345669-36.575612 36.574184-36.575613h438.85449c20.228515 0 36.574184 16.345669 36.574184 36.575613s-16.34424 36.567041-36.574184 36.56704H237.560334z m0 219.429388c-20.228515 0-36.574184-16.34424-36.574184-36.574184 0-20.228515 16.345669-36.567041 36.574184-36.56704h438.85449c20.228515 0 36.574184 16.338526 36.574184 36.56704 0 20.229944-16.34424 36.574184-36.574184 36.574184H237.560334zM273.787376 896h73.141224v-182.856633h-73.141224v182.856633zM383.502784 822.858776h146.282449v-73.141225H383.502784V822.858776zM566.359417 896h73.141224v-182.856633H566.359417v182.856633z m0 0M822.357274-18.283163c0-20.228515-16.339954-36.575612-36.56847-36.575613h-658.283877c-20.228515 0-36.574184 16.345669-36.574184 36.575613v731.42653c0 20.228515 16.345669 36.574184 36.574184 36.574184h109.715408V822.858776H127.504927C66.929382 822.858776 17.789519 773.710341 17.789519 713.143367v-731.42653c0-60.568402 49.139863-109.716837 109.715408-109.716837h658.285306c60.568402 0 109.709694 49.147006 109.709694 109.716837V184.344843L822.358702 57.146626v-75.429789z m73.141224 731.42653c0 60.566974-49.139863 109.715408-109.709694 109.715409H676.073396v-73.141225h109.715408c20.228515 0 36.568469-16.345669 36.56847-36.574184v-355.430437l73.141224 127.199646V713.143367z m0 0"  horiz-adv-x="1232" />

    
    <glyph glyph-name="jia1" unicode="&#59093;" d="M895.78713803-127.71549054000002H128.20870095c-70.3606979 0-127.92419149 57.56973511-127.92419149 127.93043302V767.79129905c0 70.3606979 57.5655741 127.92419149 127.92419149 127.92419149h767.57843708c70.3606979 0 127.93043302-57.5655741 127.93043302-127.92419149v-767.57843708c-0.00208051-70.3606979-57.57181562-127.92835251-127.93043302-127.92835251zM128.20870095 831.75027403c-38.37496889 0-63.96105549-25.5840061-63.96105549-63.95897498v-767.57843708c0-38.3791299 25.5860866-63.96521651 63.96105549-63.96521651h767.57843708c38.3791299 0 63.96521651 25.5840061 63.96521651 63.96521651V767.79129905c0 38.37496889-25.5840061 63.95897498-63.96521651 63.95897498H128.20870095z m0 0M767.85670502 352.01635149000003H256.14329498c-19.19060521 0-31.98572902 12.79096279-31.98572901 31.97948749 0 19.19476622 12.79512381 31.98572902 31.98572901 31.98572902h511.71341004c19.19060521 0 31.98364851-12.79096279 31.9836485-31.98572902 0-19.1885247-12.7930433-31.97948749-31.9836485-31.97948749z m0 0M512.00208051 96.15756596999995c-19.19476622 0-31.98572902 12.79512381-31.98572902 31.98572901V639.8567050199999c0 19.19060521 12.79096279 31.98572902 31.98572902 31.98572901 19.19060521 0 31.97948749-12.79512381 31.97948749-31.98572901v-511.71341004c0.00208051-19.19060521-12.78888229-31.98572902-31.97948749-31.98572901z m0 0"  horiz-adv-x="1024" />

    
    <glyph glyph-name="jian2" unicode="&#59078;" d="M904 832c30.9 0 56-25.1 56-56v-784c0-30.9-25.1-56-56-56H120c-30.9 0-56 25.1-56 56V776c0 30.9 25.1 56 56 56h784m0 64H120C53.7 896 0 842.3 0 776v-784c0-66.3 53.7-120 120-120h784c66.3 0 120 53.7 120 120V776c0 66.3-53.7 120-120 120zM736 416H288c-17.7 0-32-14.3-32-32s14.3-32 32-32h448c17.7 0 32 14.3 32 32s-14.3 32-32 32z"  horiz-adv-x="1024" />

    
    <glyph glyph-name="xiazai" unicode="&#59217;" d="M976.738462-1.969231H126.030769V344.615385H0v-393.846154c0-47.261538 31.507692-78.769231 78.769231-78.769231h945.230769c47.261538 0 78.769231 31.507692 78.769231 78.769231V344.615385h-126.030769v-346.584616zM472.615385 896h126.030769v-630.153846H472.615385zM535.630769 297.353846l220.553846 220.553846L842.830769 423.384615 535.630769 116.184615l-31.507692 39.384616-283.569231 275.692307L315.076923 517.907692l220.553846-220.553846z"  horiz-adv-x="1102" />

    
    <glyph glyph-name="jichuicon-" unicode="&#59072;" d="M960-115.2H64c-38.4 0-64 25.6-64 64v384c0 38.4 25.6 64 64 64s64-25.6 64-64v-320h768v320c0 38.4 25.6 64 64 64s64-25.6 64-64v-384c0-32-25.6-64-64-64zM512 115.2c-38.4 0-64 25.6-64 64V774.4c0 38.4 25.6 64 64 64s64-25.6 64-64v-595.2c0-32-25.6-64-64-64zM787.2 486.4c-19.2 0-32 6.4-44.8 19.2L512 729.6 288 505.6c-25.6-25.6-64-25.6-89.6 0s-25.6 64 0 89.6L467.2 864c12.8 12.8 25.6 19.2 44.8 19.2 19.2 0 32-6.4 44.8-19.2L832 595.2c25.6-25.6 25.6-64 0-89.6-12.8-12.8-32-19.2-44.8-19.2z"  horiz-adv-x="1024" />

    
    <glyph glyph-name="xiala" unicode="&#59073;" d="M755.342 462.11L537.778 224.2a34.238 34.238 0 0 0-25.718-11.637 34.238 34.238 0 0 0-25.72 11.637L268.777 462.11c-10.621 11.218-13.903 27.568-8.414 42.009s18.737 24.525 34.133 25.897h434.949c15.455-1.313 28.761-11.337 34.251-25.838 5.55-14.5 2.268-30.79-8.354-42.068z"  horiz-adv-x="1024" />

    
    <glyph glyph-name="gaojing" unicode="&#59071;" d="M961.578667 114.474667l-87.893334 105.130666v191.957334c0 157.568-112 294.826667-260.736 338.773333v38.442667c0 46.933333-36.906667 85.12-82.304 85.12h-37.418666c-45.312 0-82.218667-38.186667-82.218667-85.12v-38.442667c-148.736-43.946667-260.778667-181.205333-260.778667-338.773333v-191.957334l-87.850666-105.130666A29.952 29.952 0 0 1 85.333333 65.408h853.333334a29.866667 29.866667 0 0 1 22.912 49.066667zM470.741333 788.778667c0 13.994667 10.069333 25.344 22.442667 25.344h37.461333c12.458667 0 22.528-11.392 22.528-25.344v-26.24c-13.568 1.621333-27.264 2.645333-41.173333 2.645333s-27.648-1.024-41.216-2.602667v26.197334zM149.205333 125.184l53.845334 64.426667a29.952 29.952 0 0 1 6.954666 19.157333v202.794667c0 159.274667 138.282667 293.888 301.994667 293.888 163.669333 0 301.994667-134.570667 301.994667-293.888v-202.794667c0-6.997333 2.474667-13.781333 6.954666-19.157333l53.888-64.426667H149.205333zM608 30.549333a29.866667 29.866667 0 0 1-29.866667-29.866666c0-18.133333-28.288-38.357333-66.133333-38.357334-38.997333 0-66.133333 20.224-66.133333 38.357334a29.866667 29.866667 0 1 1-59.733334 0c0-54.997333 55.296-98.133333 125.909334-98.133334s125.866667 43.136 125.866666 98.133334a29.952 29.952 0 0 1-29.909333 29.866666z"  horiz-adv-x="1024" />

    
    <glyph glyph-name="qita4" unicode="&#59070;" d="M287 220.875a39.375 39.375 0 1 1 78.75 0 39.375 39.375 0 1 1-78.75 0zM849.5 834H174.5C112.625 834 62 783.375 62 721.5v-675c0-61.875 50.625-112.5 112.5-112.5h675c61.875 0 112.5 50.625 112.5 112.5V721.5c0 61.875-50.625 112.5-112.5 112.5zM202.625 614.625c16.875 16.875 45 16.875 61.875 0l50.625-50.625 50.625 50.625c16.875 16.875 45 16.875 61.875 0s16.875-45 0-61.875l-84.375-84.375c-11.25-11.25-22.5-11.25-33.75-11.25-11.25 0-22.5 5.625-33.75 11.25-22.5 16.875-84.375 84.375-84.375 84.375-5.625 16.875-5.625 45 11.25 61.875z m123.75-517.5c-67.5 0-123.75 56.25-123.75 123.75s56.25 123.75 123.75 123.75 123.75-56.25 123.75-123.75-56.25-123.75-123.75-123.75z m506.25 123.75c0-22.5-16.875-45-45-45H568.25c-22.5 0-45 16.875-45 45 0 22.5 16.875 45 45 45h219.375c22.5 0 45-22.5 45-45z m0 320.625c0-22.5-16.875-45-45-45H568.25c-22.5 0-45 16.875-45 45 0 22.5 16.875 45 45 45h219.375c22.5 0 45-16.875 45-45z"  horiz-adv-x="1024" />

    
    <glyph glyph-name="zhujishuliang" unicode="&#59281;" d="M81.536 601.92l373.952 196.416V895.168L0.832 655.744v-543.488l454.656-239.36v96.768l-373.952 196.48V601.856zM568.512 895.168v-96.832l373.952-196.48v-435.776l-373.952-196.416v-96.832l454.656 239.424V655.744L568.512 895.104zM512 736.448l-347.072-172.16L512 416.192l347.072 147.968L512 736.384z m363.2-217.92L541.568 365.184v-137.216l333.632 158.72v131.84z m0-191.04l-333.632-153.344v-129.152l333.632 161.472V327.488z m-392.768 37.696L148.8 518.528v-131.84l333.632-156.032V365.184z m-94.208-59.2a42.944 42.944 0 0 0-34.944 40.32c0 18.88 16.128 32.32 34.944 26.88 18.88-5.312 35.008-21.44 35.008-40.32 0-18.816-16.128-32.256-35.008-26.88z m-239.36 21.504v-121.024l333.568-161.472v129.152L148.8 327.488z m239.36-209.856a42.944 42.944 0 0 0-34.944 40.384c0 18.816 16.128 32.256 34.944 26.88 18.88-5.376 35.008-21.504 35.008-40.32s-16.128-32.32-35.008-26.88z"  horiz-adv-x="1024" />

    
    <glyph glyph-name="wangzhanbukeda" unicode="&#59066;" d="M81.36364129 743.856v-518.112a71.92828125 71.92828125 0 0 1 71.56800001-72.14484375h864.86399999a72.00014063 72.00014063 0 0 1 71.568 72.14484375V743.856a71.92828125 71.92828125 0 0 1-71.568 72.14484375H152.9316413a72.00014063 72.00014063 0 0 1-71.56800001-72.14484375z m-72.00014061 0A144.00028125 144.00028125 0 0 0 152.9316413 888h864.86399999c79.27171875 0 143.56814063-64.65571875 143.56814063-144.144v-518.112A144.00028125 144.00028125 0 0 0 1017.7956413 81.60000000000002H152.9316413A143.92842187 143.92842187 0 0 0 9.36350068 225.74400000000003V743.856zM369.36321942 14.424281250000035h431.99985938v-67.2485625H369.36321942v67.2485625zM225.36490692-52.82428125000001h719.99943751V-120H225.36490692v67.17571875z m410.90371875 537.9845625l115.92 115.84814062a35.99957812 35.99957812 0 0 1-50.904 50.90400001L585.36364129 535.91859375l-115.92 115.92a35.99957812 35.99957812 0 0 1-50.904-50.904l115.92-115.92-115.92-115.77529687a35.99957812 35.99957812 0 0 1 50.904-50.904l115.92 115.92 115.92-115.92a35.99957812 35.99957812 0 0 1 50.904 50.904l-115.92 115.92z"  horiz-adv-x="1170" />

    
    <glyph glyph-name="cuangaiwangzhan" unicode="&#59067;" d="M945.1161826 861.77804316H78.8838174C40.97316833 861.77804316 10.85237865 832.69590141 10.85237865 796.86254817V165.88393681000002c0-35.83335323 30.64011365-64.91549499 68.03143875-64.91549498h378.06784284v-81.01453776H298.55785245c-19.21498652 0-35.31402928-15.06039484-35.31402928-33.75605741s15.5797188-33.7560574 35.31402928-33.75605738H724.92282359c19.21498652 0 35.31402928 15.06039484 35.31402927 33.75605738s-15.5797188 33.7560574-35.31402928 33.75605741h-158.39380779v81.01453776h378.06784287c37.39132511 0 68.03143875 29.08214175 68.03143875 64.91549498V796.86254817c0.51932395 35.83335323-29.60146572 64.91549499-67.51211481 64.91549499z m4.15459168-580.08486326c0-10.90580315-9.34783127-19.73431048-20.77295839-19.7343105H94.98286017c-11.42512712 0-20.77295841 8.82850733-20.77295843 19.7343105V779.72485748c0 10.90580315 9.34783127 19.73431048 20.77295843 19.73431049h833.51495572c11.42512712 0 20.77295841-8.82850733 20.77295839-19.73431049v-498.03167758zM694.8020339 613.02186634l-31.67876155 28.04349384c-8.82850733 7.7898594-22.85025424 7.7898594-31.67876156 0l-47.25848035-42.06524076L647.02422959 543.43245571l47.25848036 41.54591679c8.82850733 7.7898594 8.82850733 20.25363444 0.51932395 28.04349384z m-352.10164485-283.03155819l84.13048151 18.69566257-63.35752312 55.56766372-20.77295839-74.26332629z m36.87200116 87.76574925l62.83819916-55.56766371L631.44451078 529.41070879l-62.83819915 55.56766371-189.03392142-167.2223151z"  horiz-adv-x="1024" />

    
    <glyph glyph-name="guamawangzhan" unicode="&#59068;" d="M5.12 754.176v-587.264c0-36.352 29.696-66.048 66.048-66.048h881.664c36.352 0 66.048 29.696 66.048 66.048V754.176c0 36.352-29.696 66.048-66.048 66.048H71.168C34.816 820.224 5.12 790.528 5.12 754.176z m882.176-587.776H136.704c-36.352 0-66.048 29.696-66.048 66.048V688.64c0 36.352 29.696 66.048 66.048 66.048h750.592c36.352 0 66.048-29.696 66.048-66.048v-456.192c0-36.352-29.696-66.048-66.048-66.048zM612.864 57.856H411.136V-30.72H336.384v-26.624h351.232V-30.72h-74.752zM261.12 614.4c-3.072-6.144-6.144-14.848-6.144-26.112 0-8.192 2.56-20.48 5.632-34.816 2.048-11.776 6.656-32.768 6.144-40.448-3.584-4.096-6.656-11.264-4.608-21.504 3.584-19.456 21.504-37.376 48.128-37.376 3.072 0 6.144 0.512 9.728 0.512 3.584 0.512 7.168 2.048 10.752 4.608 2.048 1.536 3.584 3.072 6.144 5.12 12.288 10.752 20.992 16.896 35.84 8.192 11.776-7.168 18.432-16.384 20.48-28.672 6.656-40.96-36.864-104.96-60.928-134.144-14.848 11.776-28.16 24.576-38.912 38.912-4.608 6.144-13.312 7.168-18.944 2.56-6.144-4.608-7.168-13.312-2.56-18.944 27.136-35.328 66.048-64 111.616-83.456l1.024-0.512c1.024-0.512 2.048-0.512 3.072-0.512 42.496-17.92 90.624-27.648 140.288-27.648 56.32 0 110.08 12.8 156.672 35.328 0.512 0.512 1.024 0 1.536 0.512l4.096 2.56c37.888 18.944 70.656 44.544 94.208 75.776 4.608 6.144 3.072 14.336-2.56 18.944-6.144 4.608-14.336 3.584-18.944-2.56-8.192-10.24-17.408-19.968-27.136-28.672-44.544 39.424-64 84.48-52.224 122.368 8.192 25.6 29.184 41.984 56.832 44.032 7.168 0.512 12.288 6.144 12.288 13.312v22.528c0 7.168-5.632 13.312-12.8 13.312-38.4 1.024-79.36-17.408-90.624-23.04l-179.712-2.56c-22.016 105.472-58.88 166.912-110.08 182.272-60.928 18.432-115.712-35.84-118.272-38.4-5.12-5.12-5.12-13.312-0.512-18.944l20.48-22.528z m148.48-347.136c20.992 43.52 66.048 86.528 123.904 86.528 52.736 0 102.912-32.768 125.952-80.896-39.936-16.896-85.504-26.624-132.608-26.624-41.472 0-81.408 7.68-117.248 20.992z"  horiz-adv-x="1024" />

    
    <glyph glyph-name="minganciwangzhan" unicode="&#59069;" d="M516.096 235.52c-22.016 0-39.936 17.92-39.936 39.936v14.848c0 22.016 17.92 39.936 39.936 39.936s39.936-17.92 39.936-39.936v-14.848c0-22.016-17.92-39.936-39.936-39.936z m0.512 124.416c-22.016 0-39.936 17.92-39.936 39.936V611.84c0 22.016 17.92 39.936 39.936 39.936s39.936-17.92 39.936-39.936v-211.968c0-22.016-17.92-39.936-39.936-39.936zM64 686.08v-460.8c0-35.328 28.16-64 63.488-64h769.024c35.328 0 63.488 28.672 63.488 64V686.08c0 35.328-28.16 64-63.488 64H127.488c-35.328 0-63.488-28.672-63.488-64zM0 686.08c0 70.656 56.832 128 127.488 128h769.024c70.656 0 127.488-57.344 127.488-128v-460.8c0-70.656-56.832-128-127.488-128H127.488C56.832 97.28 0 154.624 0 225.28V686.08zM320 37.376h384v-59.904h-384zM192-22.528h640v-59.904h-640z"  horiz-adv-x="1024" />

    
    <glyph glyph-name="beifen" unicode="&#59065;" d="M646-128H100A100 100 0 0 0 0-28V638a100 100 0 0 0 100 100h546a100 100 0 0 0 100-100v-31a40 40 0 1 0-80 0v31a20 20 0 0 1-20 20H100a20 20 0 0 1-20-20v-666a20 20 0 0 1 20-20h546a20 20 0 0 1 20 20V183a40 40 0 0 0 80 0v-211a100 100 0 0 0-100-100zM924 30H806a40 40 0 0 0 0 80h118a20 20 0 0 1 20 20V796a20 20 0 0 1-20 20H378a20 20 0 0 1-20-20v-8a40 40 0 0 0-80 0v8A100 100 0 0 0 378 896h546a100 100 0 0 0 100-100v-666a100 100 0 0 0-100-100zM469 9a40 40 0 0 0-27 10L152 278a40 40 0 0 0 1 60l290 248a40 40 0 0 0 66-30v-128a367 367 0 0 1 241 128l94 111a40 40 0 0 0 70-35l-26-109a430 430 0 0 0-379-332v-142a40 40 0 0 0-40-40zM240 307l189-169v91a40 40 0 0 0 40 40c144 0 269 85 323 214a447 447 0 0 0-323-137 40 40 0 0 0-40 40v83z"  horiz-adv-x="1024" />

    
    <glyph glyph-name="cuoconverted" unicode="&#59063;" d="M325.9904 676.5568c0 0-70.8608-107.1616-139.008-130.8672 0 0 415.8976-268.3904 495.9232-432.0256 0 0 91.0848 94.8736 137.1136 110.0288C820.0192 223.6928 528.0768 457.8304 325.9904 676.5568zM196.3008 241.92c0 0 99.8912-79.4112 118.4768-150.4768 0 0 261.888 306.176 522.24 495.3088 0 0-102.4512 10.7008-170.752 80.0256C666.2144 666.7776 321.3824 289.7408 196.3008 241.92z"  horiz-adv-x="1024" />

    
    <glyph glyph-name="cuo" unicode="&#59064;" d="M191.2 768L128 715.2c112.6-83.5 217.6-179.5 309.6-275.8-141.2-141.7-251.8-281.1-310-337.1L247.9 2c42.7 87.8 135.7 221.4 260.1 361 124.5-140.5 217.7-274.6 260.7-363 0 0 117.3 124.1 127.8 104.9-45.3 50.7-155.3 198.1-303.6 349 84.9 86.9 180.2 172.9 282 248.4l-27.7 51.5c-115.5-57.2-225.1-142-323.8-232.3-99.5 93.8-212.2 183.6-332.2 246.5z m0 0"  horiz-adv-x="1024" />

    
    <glyph glyph-name="dui" unicode="&#59141;" d="M1396.346934 774.995514S1172.931424 700.511429 912.292245 402.611835c-242.045717-269.93591-297.899595-381.643665-390.977141-530.611835-9.333477 9.333477-148.96817 279.269387-521.315104 474.757957L195.488571 532.949797s176.858363-121.004486 297.899594-344.419995c0 0 307.196325 474.757957 902.958769 707.470198z"  horiz-adv-x="1396" />

    
    <glyph glyph-name="cuo1" unicode="&#59193;" d="M85.976 896L2.008 825.344c149.504-111.616 288.768-239.616 411.136-367.616C225.752 268.8 78.808 82.944 1.496 8.192L161.24-125.44c56.832 117.248 180.224 294.912 345.6 481.28C672.216 168.421 796.12-10.24 853.032-128c0 0 155.648 165.376 169.472 139.776C962.6 79.36 816.168 275.86 619.56 477.184c112.64 115.712 239.104 230.4 374.272 331.264l-36.944 68.689C803.8 800.849 657.772 687.697 526.808 567.242 394.712 692.736 245.208 812.032 85.976 896z"  horiz-adv-x="1024" />

    
    <glyph glyph-name="zonglan" unicode="&#59059;" d="M288.768 773.12l0.512-2.56 44.544-160.256L389.12 412.16l-260.608-262.144c-22.016 36.352-38.912 74.24-49.664 113.664-30.208 108.544-18.432 223.232 32.256 323.072C151.552 665.6 212.992 730.112 288.768 773.12m39.936 86.528C86.016 766.464-51.2 503.808 19.456 247.296c20.48-73.728 56.832-138.24 101.376-192L457.728 394.24 328.704 859.648z m221.184-606.208l355.84-92.16c-57.856-102.912-155.648-179.712-271.36-210.944h-0.512c-38.912-10.752-79.36-16.384-119.808-16.384-77.824 0-154.624 20.48-222.208 58.88l258.048 260.608m-18.944 68.096l-334.336-338.432c91.136-72.704 203.776-111.104 317.952-111.104 45.568 0 91.136 6.144 136.192 18.432 157.696 43.008 284.672 158.72 342.016 311.296l-461.824 119.808zM472.064 810.496c23.552-5.12 46.592 9.728 51.712 33.28 5.12 23.04-10.24 46.08-33.792 51.2s-46.592-9.728-51.712-33.28 10.24-46.08 33.792-51.2zM973.824 318.976c23.552-5.12 46.592 9.728 51.712 33.28 5.12 23.04-10.24 46.08-33.792 51.2s-46.592-9.728-51.712-33.28 10.24-46.08 33.792-51.2zM871.936 688.64l-258.56-257.536c-15.872-15.872-41.472-15.872-57.344 0-15.872 15.872-15.872 41.472 0 57.344l258.56 257.536c15.872 15.872 41.472 15.872 57.344 0 15.872-15.872 15.872-41.472 0-57.344zM724.992 793.6l-168.448-167.936c-15.872-15.872-41.472-15.872-57.344 0-15.872 15.872-15.872 41.472 0 57.344l168.448 167.936c15.872 15.872 41.472 15.872 57.344 0 15.872-15.872 15.872-41.984 0-57.344z m256-254.976l-168.448-167.936c-15.872-15.872-41.472-15.872-57.344 0-15.872 15.872-15.872 41.472 0 57.344l168.448 167.936c15.872 15.872 41.472 15.872 57.344 0 15.872-15.872 15.872-41.472 0-57.344z"  horiz-adv-x="1026" />

    
    <glyph glyph-name="loudong1" unicode="&#59060;" d="M512 530.2860000000001c83.749 0.548 148.517-62.537 144.055-149.065 0-81.555-62.537-146.871-146.286-146.871a131.474 131.474 0 0 0-60.306 13.97c11.703 18.432 16.201 37.413 16.201 55.845 0 55.844-44.105 102.729-99.95 104.96 8.924 67.547 72.046 121.16 146.286 121.16zM512 896c281.417 0 512-230.034 512-512s-230.034-512-512-512S0 102.58299999999997 0 384 230.034 896 512 896z m0-916.81c223.342 0 404.81 181.468 404.81 404.847 0 223.305-181.468 404.772-404.847 404.772-223.268 0-404.736-181.467-404.736-404.809s181.468-404.81 404.81-404.81z m0 739.84c183.698 0 334.994-149.1 332.8-334.993 0-183.735-149.102-335.031-335.03-335.031-183.7 0-334.995 149.065-334.995 334.994 0 185.93 151.296 334.994 337.188 334.994z m199.9-518.728c44.105 0 76.47 32.402 74.24 72.594 0 35.182-25.674 65.317-60.307 69.778 2.231 13.97 2.231 25.71 2.231 37.413a215.04 215.04 0 0 1-216.613 216.649c-120.612 0-216.1-95.451-216.1-216.65-27.904-21.21-39.644-49.115-39.644-81.517a104.485 104.485 0 0 1 104.96-104.96c8.96 0 18.432 0 32.403 4.462 41.325-20.663 78.738-32.366 118.381-32.366a209.664 209.664 0 0 1 146.835 60.27c13.97-13.934 30.135-25.673 53.613-25.673z"  horiz-adv-x="1024" />

    
    <glyph glyph-name="mima" unicode="&#59061;" d="M877.712-128H146.28586667c-40.39573333 0-73.14346667 30.56853333-73.14346667 68.28693333V452.28586667c0 37.68 32.74666667 68.24853333 73.14346667 68.24853333h731.42613333c40.39253333 0 73.14453333-30.56853333 73.14453333-68.24853333v-511.99893334c0-37.71626667-32.752-68.29013333-73.14026666-68.28693333h-0.00426667zM511.99573333 349.85706667c-60.608 0-109.71093333-45.824-109.71093333-102.39253334 0-37.78986667 22.21653333-70.46826667 54.85866667-88.18133333v-97.43146667c0-29.424 24.5664-53.31946667 54.8576-53.31946666 30.28053333 0 54.85866667 23.89546667 54.85866666 53.31946666v97.43146667c32.64106667 17.71306667 54.85333333 50.39146667 54.85333334 88.18133333 0 56.56213333-49.10293333 102.3872-109.712 102.3872l-0.0064 0.00426667z m0 443.7504c-121.17653333 0-219.42826667-91.68106667-219.42826666-204.78826667H182.85866667C182.85866667 758.4629333299999 330.21226667 896 511.99573333 896c181.78453333 0 329.14453333-137.53813333 329.14453334-307.1808H731.42826667c0.00106667 113.1072-98.25066667 204.78826667-219.43146667 204.78826667z m0 0z"  horiz-adv-x="1024" />

    
    <glyph glyph-name="cuiruoxing-copy" unicode="&#59062;" d="M1004.83072 315.55128889c-7.28177778 14.56355555-14.56355555 21.84533333-28.61738667 21.84533333s-21.40842667 0-28.61738666-7.28177777L868.80711111 250.52501332999998l-50.09863111 50.53553778 78.71601778 79.51701334c7.28177778 7.28177778 14.56355555 21.84533333 7.28177777 29.1271111 0 14.56355555-7.28177778 21.84533333-21.48124444 29.12711112a231.05080889 231.05080889 0 0 1-257.62929778-50.97244445 227.77400889 227.77400889 0 0 1-57.23477333-238.40540444l-100.05162667-101.21671111a93.13393778 93.13393778 0 0 1-28.61738666-72.23523556A110.97429333 110.97429333 0 0 1 468.30933333-96.59733332999997a91.38631111 91.38631111 0 0 1 71.57987556-29.12711112 108.71694222 108.71694222 0 0 1 71.57987556 29.12711112l114.46954666 115.56181333a35.17098667 35.17098667 0 0 1 0 50.60835555 34.44280889 34.44280889 0 0 1-50.09863111 0L561.22481778-45.624888889999966a34.44280889 34.44280889 0 0 0-50.09863111 0 36.40888889 36.40888889 0 0 0 0 43.69066667L625.59573333 113.26350221999996a44.56448 44.56448 0 0 1 7.28177778 43.69066667 156.33976889 156.33976889 0 0 0 35.82634667 180.66090666 136.46051555 136.46051555 0 0 0 121.60568889 43.32657778l-50.02581334-57.81731555c-7.28177778-7.28177778-7.28177778-14.56355555-7.28177778-29.12711111s0-14.56355555 7.28177778-21.84533334l100.12444445-101.14389333a34.29717333 34.29717333 0 0 1 50.09863111 0l57.23477333 57.74449778a197.26336 197.26336 0 0 0-42.88967111-122.77077333 141.33930667 141.33930667 0 0 0-93.06112-43.69066667 31.74855111 31.74855111 0 0 1-28.61738666-43.32657778c7.28177778-21.84533333 21.48124445-36.40888889 42.96248888-29.12711111a221.73013333 221.73013333 0 0 1 128.81464889 65.02627556 247.58044445 247.58044445 0 0 1 49.88017778 260.68764444zM75.09333333 384a436.90666667 436.90666667 0 0 0 833.83637334 182.84544 36.40888889 36.40888889 0 1 1 66.11854222 30.51064889 509.72444445 509.72444445 0 1 1-752.42609778-633.00494222 36.40888889 36.40888889 0 0 1 20.68024889-6.48078222 36.40888889 36.40888889 0 0 1 20.68024889 66.40981333A437.27075555 437.27075555 0 0 0 75.09333333 384zM220.72888889 384a291.27111111 291.27111111 0 0 0 497.27260444 206.00149333 36.40888889 36.40888889 0 1 1 51.48216889 51.48216889A364.08888889 364.08888889 0 1 1 308.11022222 82.09749333000002a36.40888889 36.40888889 0 0 1 40.77795556 60.36593778A291.27111111 291.27111111 0 0 0 220.72888889 384zM431.90044445 262.17585778A145.63555555 145.63555555 0 0 0 512 529.6355555499999a143.96074667 143.96074667 0 0 0 67.42926222-16.45681777 36.40888889 36.40888889 0 1 1 33.78744889 64.51655111 218.45333333 218.45333333 0 0 1-221.29322666-376.39509334A36.40888889 36.40888889 0 0 1 411.87555555 195.32913778a36.40888889 36.40888889 0 0 1 20.0248889 66.84672z"  horiz-adv-x="1024" />

    
    <glyph glyph-name="daichuli" unicode="&#59056;" d="M630.944 321.619c111.527-53.965 170.473-155.832 184.511-306.18h31.134c18.731 0 33.98-15.222 33.98-34v-5.719c0-18.778-15.249-34-33.98-34H177.411c-18.731 0-33.98 15.222-33.98 34v5.719c0 18.778 15.249 34 33.98 34h31.171c14.045 147.451 72.508 242.712 182.913 305.31 0.993 0.585 2.074 1.091 3.152 1.578 48.178 21.678 57.215 93.204-1.618 124.046-111.418 62.886-170.333 158.107-184.443 306.204h-31.175c-18.731 0-33.98 15.208-33.98 34.007v5.695c0 18.775 15.249 34.003 33.98 34.003h669.178c18.731 0 33.98-15.229 33.98-34.003v-5.695c0-18.799-15.249-34.007-33.98-34.007h-32.12c-16.657-139.342-81.559-234.933-183.525-306.204-59.493-31.2-59.493-93.57 0-124.754z"  horiz-adv-x="1024" />

    
    <glyph glyph-name="fuwuqi2" unicode="&#59057;" d="M734.72 271.36c-26.624 0-46.08 17.92-46.08 46.08s17.92 46.08 46.08 46.08c26.624 0 46.08-17.92 46.08-46.08 0-28.672-19.456-46.08-46.08-46.08zM838.656 896H185.344c-25.088 0-44.544-19.456-44.544-44.544v-934.912c0-25.088 19.456-44.544 44.544-44.544h652.8c25.088 0 44.544 19.456 44.544 44.544V851.456c0.512 25.088-18.944 44.544-44.032 44.544z m-289.792-608.256c-20.992 0-36.864 16.384-36.864 36.864s16.384 36.864 36.864 36.864 36.864-16.384 36.864-36.864-15.872-36.864-36.864-36.864z m185.856-44.544c-39.936 0-74.24 32.768-74.24 74.24s32.768 74.24 74.24 74.24c39.936 0 74.24-32.768 74.24-74.24s-34.304-74.24-74.24-74.24zM808.96 450.56H215.04V599.04h593.92v-148.48z m0 222.72H215.04v148.48h593.92v-148.48z"  horiz-adv-x="1024" />

    
    <glyph glyph-name="zhongduan" unicode="&#59058;" d="M1016.86992592 694.68918518H7.13007408v71.76920179C7.13007408 812.59573097 44.56812089 850.03377778 90.78313718 850.03377778h842.43372564c46.2150163 0 83.65306311-37.51571911 83.6530631-83.65306311V694.68918518z m0-77.67229629v-615.39760356c0-46.137344-37.43804682-83.57539082-83.6530631-83.57539081H90.78313718A83.65306311 83.65306311 0 0 0 7.13007408 1.6192853300000252V617.09456118h1009.73985184zM413.97756208 322.48354133a38.68080355 38.68080355 0 0 1-9.16533097 14.680064l-109.90629926 109.75095467a38.83614815 38.83614815 0 1 1-54.91431348-54.91431348L327.5282963 304.46356859l-84.19676919-84.27444148a38.83614815 38.83614815 0 0 1 54.91431348-54.91431348l109.82862696 109.82862696a38.83614815 38.83614815 0 0 1 5.90309453 47.38010074zM550.83614815 228.65540740999995a38.83614815 38.83614815 0 0 1 0-77.6722963h155.3445926a38.83614815 38.83614815 0 0 1 0 77.6722963H550.83614815z"  horiz-adv-x="1024" />

    
    <glyph glyph-name="xiala1" unicode="&#59051;" d="M975.98577777 562.60293502L561.15200002 108.97093501999996a65.28227559 65.28227559 0 0 0-49.03822225-22.18666669c-18.77333332 0-36.63644444 8.07822224-49.03822222 22.18666669L48.24177778 562.60293502c-20.25244444 21.39022219-26.51022221 52.56533333-16.04266671 80.09955548s35.72622223 46.7626667 65.08088894 49.37955564h829.3262222c29.46844451-2.50311111 54.84088889-21.61777776 65.30844446-49.26577781 10.58133339-27.64800003 4.32355555-58.70933332-15.9288889-80.21333331z"  horiz-adv-x="1024" />

    
    <glyph glyph-name="shaixuanxuanzhong" unicode="&#59055;" d="M510.289 399.186L132.607 751.634c-2.411 2.25-0.819 6.289 2.478 6.289h755.364c3.297 0 4.889-4.039 2.478-6.289L515.246 399.186a3.632 3.632 0 0 0-4.957 0zM512.767 376.677c-12.472-0.002-24.941 4.365-35.113 13.097L126.258 691.346c-17.301 14.849-23.365 38.257-15.449 59.639 7.916 21.38 27.763 35.194 50.562 35.194h702.793c22.799 0 42.646-13.814 50.562-35.194 7.916-21.382 1.852-44.79-15.449-59.639L547.88 389.773c-10.171-8.73-22.644-13.095-35.113-13.096zM168.38 729.667l344.388-295.559 344.388 295.559H168.38zM389.147 506.758V693.823h247.24v-658.487c0-29.934-32.574-48.495-58.326-33.234l-150.007 88.893a79.372 79.372 0 0 0-38.908 68.282V506.758M597.742-31.667c-11.731 0-23.448 3.154-34.085 9.46L413.65 66.686c-32.543 19.285-52.759 54.763-52.759 92.591V722.078h303.752v-686.742c0-24.339-12.624-46.064-33.771-58.114-10.403-5.929-21.775-8.889-33.13-8.889zM417.403 665.566v-506.289c0-17.965 9.603-34.815 25.055-43.974l150.007-88.893c4.518-2.673 8.468-1.199 10.427-0.088 1.956 1.114 5.239 3.768 5.239 9.015v630.23H417.403zM864.333 363.907H732.471c-20.518 0-37.151 16.633-37.151 37.151 0 20.518 16.633 37.151 37.151 37.151h131.862c20.518 0 37.151-16.633 37.151-37.151 0-20.517-16.633-37.151-37.151-37.151zM864.333 148.324H732.471c-20.518 0-37.151 16.633-37.151 37.151 0 20.518 16.633 37.151 37.151 37.151h131.862c20.518 0 37.151-16.633 37.151-37.151 0-20.517-16.633-37.151-37.151-37.151zM864.333 255.938H732.471c-20.518 0-37.151 16.633-37.151 37.151 0 20.518 16.633 37.151 37.151 37.151h131.862c20.518 0 37.151-16.633 37.151-37.151 0-20.518-16.633-37.151-37.151-37.151z"  horiz-adv-x="1024" />

    
    <glyph glyph-name="-chrome" unicode="&#59054;" d="M258.27248 449.456L111.74448 703.264C205.56848 820.72 349.98448 896 512.00048 896c187.44 0 351.312-100.736 440.528-251.008H534.75248a261.2 261.2 0 0 1-22.768 1.008c-121.872 0-224.576-83.648-253.728-196.544z m437.04 121.536h293.456A510.784 510.784 0 0 0 1024.00048 383.984c0-280.832-226.096-508.8-506.192-511.92L727.20048 234.736a260.48 260.48 0 0 1 46.8 149.248c0 73.168-30.16 139.424-78.688 187.008zM326.00048 384c0 102.56 83.44 186 186 186S698.00048 486.56 698.00048 384 614.56048 198 512.00048 198 326.00048 281.44 326.00048 384z m256.176-252.448l-146.576-253.872C189.07248-85.44 0.00048 127.2 0.00048 384a509.664 509.664 0 0 0 65.696 251.024L274.72048 272.976c41.872-89.104 132.48-150.976 237.28-150.976 24.304 0 47.84 3.344 70.176 9.552z"  horiz-adv-x="1024" />

    
    <glyph glyph-name="qiyong" unicode="&#59052;" d="M512-66C263.87272724-66 62 135.87272724000002 62 384 62 632.12727276 263.87272724 834 512 834 760.12727276 834 962 632.12727276 962 384 962 135.87272724000002 760.12727276-66 512-66z m0 789.40909072c-187.2 0-339.46363652-152.29090898-339.46363652-339.46363652 0-187.2 152.29090898-339.46363652 339.46363652-339.46363564s339.46363652 152.26363653 339.46363652 339.46363564c0 187.17272753-152.29090898 339.46363652-339.46363652 339.46363652z m-65.72727246-527.64545478c-21.84545479 0-31.82727305 11.31818203-39.84545478 20.40000029a72.3545455 72.3545455 0 0 1-7.03636349 7.30909072l-125.8636368 124.90909102a52.69090869 52.69090869 0 0 0-15.68181797 37.55454609v0.10909073a53.56363623 53.56363623 0 0 0 53.59090956 53.29090898h0.19090899c14.37272753 0 27.8454542-5.53636406 38.01818145-15.62727305l97.06363681-96.32727246 227.83636319 227.83636319a52.33636406 52.33636406 0 0 0 37.06363652 15.35454579H711.96363653a52.09090928 52.09090928 0 0 0 37.06363652-15.38181826 52.80000029 52.80000029 0 0 0 0-74.45454521l-253.06363652-254.12727305c-2.23636377-2.40000029-4.06363623-4.4454542-5.83636377-6.40909072-14.69999971-16.28181826-22.06363623-24.43636406-43.55454552-24.43636406h-0.29999971z"  horiz-adv-x="1024" />

    
    <glyph glyph-name="jinyong" unicode="&#59299;" d="M510.6 830C264.2 830 64.5 630.3 64.5 383.9s199.7-446.1 446.1-446.1 446.1 199.7 446.1 446.1S757 830 510.6 830z m0-796.2c-47.3 0-93.1 9.2-136.2 27.5-41.7 17.6-79.1 42.9-111.3 75.1-32.2 32.2-57.4 69.6-75.1 111.3-18.2 43.1-27.5 88.9-27.5 136.2s9.2 93.1 27.5 136.2c11.4 27 26 52.2 43.7 75.3L722.1 105c-23.1-17.6-48.3-32.2-75.3-43.7-43.1-18.2-88.9-27.5-136.2-27.5zM790 172.9L299.6 663.2c23 17.4 48 31.9 74.8 43.3 43 18.2 88.9 27.5 136.2 27.5 47.3 0 93.1-9.2 136.2-27.5 41.7-17.6 79.1-42.9 111.3-75.1s57.4-69.6 75.1-111.3c18.2-43.1 27.5-88.9 27.5-136.2 0-47.3-9.2-93.1-27.5-136.2-11.3-26.8-25.8-51.8-43.2-74.8z"  horiz-adv-x="1024" />

    
    <glyph glyph-name="password" unicode="&#59046;" d="M839.801303 368.302619c-17.71957 17.717524-41.61991 28.42233-68.045769 28.42233l-6.748704 0L765.006829 500.189392c0 68.930929-28.15934 132.186601-74.264401 177.745217C645.16744 723.491177 582.172711 751.89611 513.037121 751.89611c-67.556629 0-129.984447-27.556613-174.955684-71.983451l-2.826372-1.979074c-45.537126-45.558615-73.964572-108.813265-73.964572-177.745217l0-103.46342-7.05058 0c-26.425859 0-50.021254-10.704806-67.475787-28.42233l0 0 0-0.300852c-17.454534-17.417695-28.086685-41.054021-28.086685-67.196425L158.677441-49.913415c0-26.427906 10.632151-50.629097 28.086685-67.781756 17.454534-17.698081 41.049928-28.102035 67.475787-28.102035l517.51562 0c24.765033 0 47.764863 9.290597 65.255213 25.596981l2.791579 2.505054c16.888645 17.153682 28.121478 41.35385 28.121478 67.781756L867.923804 300.806365C867.92278 326.948769 856.689948 350.585095 839.801303 368.302619L839.801303 368.302619zM340.606956 500.189392 340.606956 500.189392c0 47.252187 19.980054 90.568738 50.89311 121.517611l1.733481 1.942235c30.909987 30.119995 73.659627 48.969295 119.80255 48.969295 47.797609 0 90.512457-19.433608 121.988332-50.912553 30.987758-30.948873 50.365084-74.265424 50.365084-121.517611l0-103.46342L340.606956 396.724948 340.606956 500.189392 340.606956 500.189392zM788.306488-49.913415 788.306488-49.913415c0-4.488221-1.961678-8.710382-4.752234-11.799744l-1.12973-1.12973c-3.093455-2.243087-6.713912-3.375887-10.670014-3.375887L254.23889-66.218776c-3.880377 0-8.403391 1.375324-11.233855 4.505617-3.390213 3.090385-5.088902 7.312546-5.088902 11.799744L237.916133 300.806365c0 4.76963 1.698688 8.728802 5.088902 11.515265 2.830465 2.789533 7.353478 5.072529 11.233855 5.072529l517.51562 0c4.486174 0 8.708336-2.282996 11.79872-5.072529 2.790556-3.39226 4.752234-7.312546 4.752234-11.515265L788.305465-49.913415 788.306488-49.913415zM513.037121 255.51381 513.037121 255.51381c-25.938766 0-50.062186-10.385535-67.556629-27.840068-17.415648-17.154705-28.082592-41.054021-28.082592-67.479881 0-26.747177 10.666944-50.345642 28.082592-67.4983 11.836583-12.119015 27.031657-20.807908 43.880393-25.032116l0-48.948829c0-12.913101 10.708899-23.617907 23.676236-23.617907 13.4575 0 23.899316 10.704806 23.899316 23.617907l0 48.948829c17.11275 4.224208 31.740912 12.913101 44.106544 25.032116 16.887622 17.152658 28.160363 40.751123 28.160363 67.4983 0 26.425859-11.272741 50.326199-28.160363 67.479881C563.36025 245.128275 539.461957 255.51381 513.037121 255.51381L513.037121 255.51381zM547.303552 126.171999 547.303552 126.171999c-8.708336-8.446369-20.244067-13.81668-33.174564-14.063297l-1.091868 0-1.170662 0c-12.365632 0.246617-24.163329 5.616928-32.607652 14.063297-8.746198 8.425903-14.062274 20.791535-14.062274 34.021861 0 13.211906 5.315052 25.296129 14.062274 34.003442 8.444323 8.444323 20.809955 14.078647 33.777291 14.078647 13.4575 0 25.25622-5.634324 34.266431-14.078647 8.40646-8.708336 14.059204-20.791535 14.059204-34.003442C561.362756 146.963535 555.710013 134.597903 547.303552 126.171999L547.303552 126.171999z"  horiz-adv-x="1024" />

    
    <glyph glyph-name="yonghu" unicode="&#59050;" d="M721.561853 744.547613c-55.996338 55.995315-130.445958 86.833671-209.634508 86.833671s-153.639193-30.838356-209.634508-86.833671-86.833671-130.444934-86.833671-209.634508c0-63.765279 20.008706-124.449383 57.032948-174.907589-59.386552-38.613436-109.286032-90.871637-145.04956-152.135956-40.292682-69.023026-61.590753-147.973146-61.590753-228.311893 0-22.606881 18.326391-40.932248 40.932248-40.932248s40.932248 18.325367 40.932248 40.932248c0 65.8518 17.437138 130.529869 50.426483 187.04093 32.045857 54.896284 77.926814 100.984972 132.681882 133.281539 0.064468 0.037862 0.125867 0.080841 0.190335 0.118704 51.613518-39.916105 114.596991-61.553914 180.912349-61.553914 79.189573 0 153.639193 30.838356 209.634508 86.832647 55.995315 55.996338 86.832647 130.445958 86.832647 209.635531C808.394501 614.102678 777.557168 688.552298 721.561853 744.547613zM511.927345 320.309422c-118.333082 0-214.603683 96.270601-214.603683 214.603683 0 118.333082 96.270601 214.603683 214.603683 214.603683s214.603683-96.270601 214.603683-214.603683C726.530005 416.580023 630.259404 320.309422 511.927345 320.309422zM929.802618 156.077987c-22.840194 54.001915-55.531757 102.492302-97.162924 144.125515-15.985066 15.985066-41.901319 15.986089-57.886385 0-15.985066-15.985066-15.985066-41.901319 0-57.886385 70.185502-70.186526 108.837824-163.502841 108.837824-262.759449 0-22.606881 18.325367-40.932248 40.932248-40.932248s40.932248 18.325367 40.932248 40.932248C965.455629 40.756495 953.460434 100.146117 929.802618 156.077987z"  horiz-adv-x="1024" />

    
    <glyph glyph-name="tianjia" unicode="&#59812;" d="M516.5 667c20.3 0 40.6-15.2 40.6-40.6v-482.7c0-20.3-15.2-40.6-40.6-40.6-25.4 5.1-40.6 20.3-40.6 45.7V626.4c0 25.4 15.2 40.6 40.6 40.6zM790.9 387.6c0-20.3-15.2-40.6-40.6-40.6H272.6c-20.3 0-40.6 15.2-40.6 40.6 0 20.3 15.2 40.6 40.6 40.6h482.7c20.4-5.1 35.6-20.3 35.6-40.6zM811 749.4c35.4 0 64.2-28.8 64.2-64.2V85c0-35.4-28.8-64.2-64.2-64.2H211.9c-35.4 0-64.2 28.8-64.2 64.2V685.1c0 35.4 28.8 64.2 64.2 64.2H811m0 83.1H211.9c-81.3 0-147.2-65.9-147.2-147.2V85c0-81.3 65.9-147.2 147.2-147.2H811c81.3 0 147.2 65.9 147.2 147.2V685.1c0.1 81.3-65.9 147.3-147.2 147.3z"  horiz-adv-x="1024" />

    
    <glyph glyph-name="bianji1" unicode="&#59047;" d="M572.34285687 330.10285688l-216.68571374-103.54285688 103.54285687 216.68571469 288.13714313 288.13714219 113.14285687-113.14285688L572.34285687 330.10285688zM932 802.90285687a80.02285688 80.02285688 0 0 0 0-113.14285687l-39.49714313-39.49714313-113.14285687 113.14285782 39.49714313 39.49714218a80.02285688 80.02285688 0 0 0 113.14285687 0zM548.68571469 795.42857156a272.50285688 272.50285688 0 0 1-34.56-102.85714312H340.57142844a137.14285688 137.14285688 0 0 1-137.14285688-137.14285688v-342.85714312a137.14285688 137.14285688 0 0 1 137.14285688-137.14285688h342.85714312a137.14285688 137.14285688 0 0 1 137.14285688 137.14285688V384H923.42857156v-274.28571469a137.14285688 137.14285688 0 0 0-137.14285687-137.14285687H237.71428531a137.14285688 137.14285688 0 0 0-137.14285687 137.14285687V658.28571469a137.14285688 137.14285688 0 0 0 137.14285687 137.14285687h310.97142938z"  horiz-adv-x="1024" />

    
    <glyph glyph-name="jia" unicode="&#59041;" d="M1024 373.76c0-47.104-38.912-86.016-86.016-86.016h-348.16v-327.68c0-47.104-38.912-86.016-86.016-86.016-47.104 0-86.016 38.912-86.016 86.016v327.68h-327.68c-47.104 0-86.016 38.912-86.016 86.016s38.912 86.016 86.016 86.016h327.68v348.16C417.792 855.04 456.704 893.952 503.808 893.952c47.104 0 86.016-38.912 86.016-86.016v-348.16h348.16c47.104 2.048 86.016-36.864 86.016-86.016z"  horiz-adv-x="1024" />

    
    <glyph glyph-name="kuang1" unicode="&#59045;" d="M51.2 614.4H0V896h281.6v-51.2H51.2zM1024 614.4h-51.2V844.8h-230.4V896h281.6zM281.6-128H0V153.6h51.2v-230.4h230.4zM1024-128H742.4v51.2h230.4v230.4h51.2z"  horiz-adv-x="1024" />

    
    <glyph glyph-name="fengxianzhishu" unicode="&#59043;" d="M76.8 368.64v-76.8h179.2l51.2 51.2 115.2-220.16L565.76 435.2l74.24-140.8h307.2v76.8H688.64L573.44 645.12l-151.04-330.24-104.96 171.52-97.28-120.32z"  horiz-adv-x="1024" />

    
    <glyph glyph-name="jinrigongjicishu" unicode="&#59044;" d="M396.8 716.8l-76.8-384 179.2 51.2-51.2-332.8 256 512-204.8-51.2 76.8 204.8z"  horiz-adv-x="1024" />

    
    <glyph glyph-name="weiguiwailian" unicode="&#59039;" d="M452.905 86.939c-65.205-65.203-171.297-65.203-236.497 0-31.592 31.588-48.988 73.589-48.988 118.246 0 44.675 17.4 86.664 48.993 118.252l113.944 113.944-101.238 101.246-113.93-113.95c-58.634-58.621-90.93-136.575-90.93-219.492 0-82.908 32.296-160.863 90.918-219.484 58.632-58.627 136.576-90.915 219.484-90.915 82.91 0 160.853 32.288 219.485 90.915L668.09 99.646 566.85 200.884 452.905 86.94z m117.934 590.936c65.205 65.2 171.283 65.217 236.505 0 31.582-31.586 48.989-73.578 48.989-118.25 0-44.671-17.406-86.658-48.989-118.246L693.39 327.433l101.233-101.24L908.567 340.14c58.632 58.62 90.929 136.576 90.929 219.485s-32.297 160.857-90.93 219.49c-58.614 58.628-136.57 90.912-219.483 90.912-82.91 0-160.852-32.286-219.484-90.913L355.656 665.168l101.238-101.24 113.945 113.947zM37.953 627.721H175.81v-71.585H37.953V627.72zM141.527 803.37l97.552-97.555-50.61-50.61-97.556 97.555 50.614 50.61z m125.036 52.957h71.578v-137.85h-71.578V856.327z m419.042-809.98h71.585v-137.856h-71.585V46.347z m196.61-84.918l-97.552 97.553 50.612 50.614 97.545-97.555-50.605-50.612z m-34.27 247.248h137.85v-71.584h-137.85v71.584z"  horiz-adv-x="1024" />

    
    <glyph glyph-name="gongji1" unicode="&#59040;" d="M195.181 372.303a327.87 327.87 0 1 1 328.51 328.51 322.914 322.914 0 0 1-171.689-48.917l43.802-43.641A267.923 267.923 0 1 0 288.059 500.19l-43.961 44.121a328.19 328.19 0 0 1-48.917-172.008z m164.335 0A164.015 164.015 0 1 1 523.21 536.638a159.859 159.859 0 0 1-49.396-7.993l54.032-52.913a102.63 102.63 0 0 0 99.432-103.429 103.764 103.764 0 0 0-207.497-3.836L366.39 421.22a189.272 189.272 0 0 1-6.874-48.917z m-335.703 0A499.398 499.398 0 1 1 266.958 800.085l44.28-44.28a432.577 432.577 0 0 0 212.453 55.95A439.291 439.291 0 1 0 84.399 372.463a434.495 434.495 0 0 0 55.152 212.612L95.27 629.356a493.963 493.963 0 0 1-71.137-257.053zM0.313 788.895l85.845 21.58L107.099 896l160.978-160.978-6.395-58.028L546.39 392.286a30.117 30.117 0 0 0-42.522-42.682L218.521 634.312l-58.349-6.235z"  horiz-adv-x="1024" />

    
    <glyph glyph-name="zaoshougongji1" unicode="&#59038;" d="M512.488317-117.257034l-270.52742 154.308059L292.257511 65.861707l195.326657-111.824511 24.415832-14.161183 25.392465 14.6495v-0.488317l194.350024 110.847878 50.296614-28.810682-269.550786-153.331426z m112.312827 152.843109l-50.296614 28.810682 51.273248 29.298999L512 158.641869l-113.777778-64.457797 51.273248-29.298998-50.296614-28.810682-89.361946 50.784931-76.665713-43.460181-50.784931 28.322365 76.665713 43.948498L170.17835 166.454936l50.296614 28.810682 47.855031-27.345732 113.777778 64.946113L184.827849 345.667144V440.888889h91.315213l235.368621-134.287077L746.391989 440.888889h91.315212v-95.710062l-197.279924-112.801145 113.777778-64.946113 47.855031 27.345732 50.296614-28.810682-88.385312-50.784931 76.665713-43.460181-50.296615-28.810682-77.154029 43.948498-88.385313-51.273248z m-62.50453 151.866476l113.777778-64.946113 28.322365 16.114449-113.777778 64.946113-28.322365-16.114449z m-242.693371-48.831664l28.322365-16.114449 54.203147 30.763948 103.034812 58.597997 283.711969 162.121126v16.602766H761.041488l-441.438245-251.971388z m-83.990463 235.368622L432.892704 261.188364l28.322365 16.602766-197.76824 113.289461h-27.834049v-17.091082z m-63.481163-296.408202l-102.058179 58.597997V368.618026h50.296614v-203.139724l102.546495-58.597997-50.78493-29.298998z m680.225083 0.488316l-50.296614 28.810682 101.569862 58.109681v203.139723h50.296614v-232.438722l-101.569862-57.621364zM236.589413 513.159752L123.299952 578.105866 70.073438 608.869814v32.228898L512 893.558417l441.926562-252.459705v-31.740581l-50.296614-28.810682-116.219361-66.411064V571.269433l93.268478 53.226514-343.774916 196.30329-25.392466 14.649499-24.415832-14.161182-344.75155-196.791607 94.245112-53.714831v-57.621364zM512 790.523605L316.185026 676.745827v-227.555555l11.231283-6.348117 26.369099 15.137816 26.369098-15.137816V412.566524l26.369099 15.137816 26.369099-15.137816v-30.275632l26.369099 15.137816 26.369098-15.626133v-30.275632l26.857416-15.626132 26.369098 15.137816v30.275631l26.369099 15.137816 26.369099-15.137816V412.566524l26.369098 15.137816 26.369099-15.137816v30.763948l26.369099 15.137816 26.369099-15.137816 11.231282 6.348116V676.745827L512 790.523605zM421.661421 474.094421L351.832141 515.113019V597.638531l70.317597 41.506915 69.82928-41.506915V515.113019l-70.317597-41.018598z m116.219361-16.11445l-25.880782-14.161182-25.392465 14.161182v28.322366L512 500.463519l25.880782-14.161182v-28.322366z m139.170243 57.621364l-69.82928-41.018598-70.317596 41.018598V598.126848l69.82928 41.018598 69.82928-41.506915 0.488316-82.037196zM512 319.298045l-41.506915 23.927515V373.501192l-11.719599 6.836433-41.018598-23.439199v47.366715l-11.719599 6.836433-41.018598-23.439199v47.366714L353.297091 441.865522l-26.369099-15.137816-25.880782 14.6495v244.158321l210.464473 122.079161 210.464473-122.079161v-244.646638l-25.880782-15.137816-26.369098 15.137816-11.7196-6.836433v-47.366714l-41.018598 23.439198-11.719599-6.836433v-47.366714l-41.018598 23.439199-11.7196-6.836433v-30.275632l-40.530281-22.950882z m-11.719599 41.018598l12.207916-6.836433 11.719599 6.836433v30.275632l41.018598 23.439199 11.719599-6.836433v13.672866l41.018598 23.439198 11.7196-6.836433v13.672866l41.018598 23.439199 22.950882-13.184549V668.444444L512 773.432523 330.834526 668.444444v-206.557939l22.950882 13.184549L394.804006 451.631855v-13.672866l11.719599 6.836433 41.018598-23.439199v-13.184549l11.7196 6.836433 41.018598-23.927516v-30.763948z m11.719599 66.411063l-40.041965 22.462566v37.112065l-50.296614-29.298999-84.478779 49.808298V605.939914l84.967096 49.808298 84.478779-50.296614v-91.803529l5.371483 2.9299 10.254649-5.371484V606.428231l84.47878 49.808297 84.478779-50.296614 0.488317-98.639962-84.47878-49.319981-54.203147 31.740582v-40.530281l-41.018598-22.462566zM501.257034 466.281354l11.231283-6.348116 11.231282 6.348116v11.231283l-11.231282 6.348116-10.742966-5.859799V466.281354zM366.48164 523.902718l55.179781-32.228898 55.668097 32.228898V589.337148l-55.17978 32.717215-55.668098-32.717215v-65.43443z m185.072008 0.488317l55.668097-32.228899 55.179781 32.228899V589.337148l-55.179781 32.717215-55.17978-32.228898v-65.43443z"  horiz-adv-x="1024" />

    
    <glyph glyph-name="diannao" unicode="&#59037;" d="M511.319 893.312c-281.19 0-509.143-227.948-509.143-509.143 0-281.19 227.948-509.138 509.143-509.138 281.196 0 509.138 227.948 509.138 509.138 0.005 281.195-227.948 509.143-509.138 509.143z m0-962.488c-250.373 0-453.345 202.972-453.345 453.345 0 250.373 202.972 453.345 453.345 453.345 250.368 0 453.345-202.972 453.345-453.345 0-250.373-202.972-453.345-453.345-453.345zM780.872 660.972H249.006a44.314 44.314 0 0 1-44.324-44.324v-354.545a44.324 44.324 0 0 1 44.324-44.329H470.62v-66.478H359.808a22.17 22.17 0 0 1-22.16-22.16v-22.148h354.576v22.149a22.17 22.17 0 0 1-22.164 22.159H559.258v66.478h221.598a44.329 44.329 0 0 1 44.324 44.329V616.648a44.288 44.288 0 0 1-44.308 44.324zM492.774 262.098a22.164 22.164 0 0 0 44.314 0 22.175 22.175 0 0 0-22.154-22.19 22.185 22.185 0 0 0-22.16 22.19z m-243.768 44.324V616.648h531.866v-310.226H249.006z"  horiz-adv-x="1024" />

    
    <glyph glyph-name="mouli" unicode="&#59027;" d="M710.63 505.66c-172 0-311.377-139.4-311.377-311.361 0-171.949 139.419-311.349 311.377-311.349 171.94 0 311.34 139.4 311.34 311.349 0 171.96-139.4 311.36-311.34 311.36z m69.48-269.26c5.22-0.96 10.22-1.45 14.621-1.45h47.3c4.5 0 8.44-1.7 11.719-5.62 3.32-3.78 4.92-7.4 4.92-11.19v-33.999c0-6.76-4.76-9.891-13.84-9.891h-82c-3.62 0-7.08-0.96-10.46-2.98-3.28-1.76-4.74-4.719-4.74-8.35 0-3.95 0.08-7.73 0.56-11.97 0.48-4.28 0.661-7.9 0.661-10.54 0-5.64 4.88-7.65 13.981-5.64h80.701c9.26 0 13.84-4.25 13.84-12.85v-31.27c0-9.26-6.74-14.001-19.62-14.001h-18.08c-7.24 0-14.72-0.32-22.76-0.64-7.72-0.65-15.12-0.8-21.56-0.8h-12.52c-8.121 0-12.38-4.762-12.38-14.31v-56.532c0-4.9-3.78-7.23-11.18-7.23h-44.542c-11.98 0-18.001 5.151-18.001 15.512 0 3.949 0.34 11.9 0.74 24.3 0.62 12.199 0.3 20.649-0.68 25.4 0 4.66-0.54 7.79-1.44 9.24-0.801 1.36-3.46 2.019-8.28 2.019h-83.36c-12.04 0-18.08 6.1-18.08 18.48 0 2.66-0.26 6.271-1.3 10.69-0.98 4.1-0.98 8.45 0 13.35 1.04 4.66 2.42 8.919 4.2 12.86 1.92 3.62 5.54 5.06 11.001 4.1h93.019c1.92 0 2.72 2.33 2.72 7.24V167.17c0 4.761-5.54 7.08-16.48 7.08h-80.541c-3.78 0-6.92 0.17-9.72 0.57-2.9 0.468-4.2 3.128-4.2 7.72v17.278c0 7.401-0.46 13.031-1.38 16.961-1.9 5.63-0.46 10.37 4.04 13.98 4.68 3.96 10.76 5.64 18.08 5.64 7.48-0.96 15.6-1.141 24.518-0.65 8.68 0.5 15.52 0.65 20.1 0.65h16.481c5.56 0 7.48 2.01 5.56 5.63-1.78 2.08-7.32 9.16-16.48 21.22-9.42 12.62-19.06 25.17-29.18 38.35-12.08 16.15-26.061 33.61-41.741 52.418-6.44 10.36-5.06 18.97 4.2 25.4 4.56 2.89 9.4 6.43 14.46 10.85 5.14 4.18 11 8.2 17.52 11.9 9.16 5.7 17.919 0.58 26.28-15.429 2.9-3.95 8.139-10.69 16.08-20.67 7.88-10.04 16-20.32 24.201-31.82 8.2-11.501 16.159-21.56 23.639-30.32 7.48-9.08 11.5-14.631 12.62-16.481 1.76-3.78 5.141-6.1 10.2-7.08 5.159-0.96 8.78 0.65 10.54 4.27 0.82 2.01 4.66 7.79 11.76 17.84 6.9 9.73 14.619 20.749 22.899 33.13 8.36 12.29 16.22 23.72 23.56 34.81 7.56 10.77 12.14 17.69 13.98 20.43 4.601 6.66 8.68 10.84 11.66 12.7 3.3 1.91 8.6 1.35 16.16-1.381 4.58-1.839 9.74-4.66 15.04-8.35 5.7-3.87 9.48-6.769 11.16-8.69 10.22-10.46 13.1-19.38 8.38-26.78-1.78-2.98-6.94-10.04-15.139-21.38-8.66-11.25-17.44-23.22-27.18-36.1-9.88-12.7-18.46-24.6-26.361-36.1-7.859-11.32-12.22-18.09-13.32-19.77-2.516-4.646-1.535-7.465 3.444-8.595zM384.57 895.998c-211.779 0-383.399-85.15-383.399-190.2 0-105.029 171.62-190.188 383.4-190.188 211.72 0 383.358 85.14 383.358 190.189S596.29 895.999 384.57 895.999z m120.82-429.189c-38.02-6.26-78.56-9.8-120.82-9.8-182.48 0-334.859 63.29-373.6 147.98-6.22-13.58-9.799-27.7-9.799-42.21 0-105.029 171.62-190.208 383.4-190.208 10.3 0 20.38 0.379 30.46 0.78 23.72 36.777 54.399 68.597 90.358 93.458z m252.019 52.4c6.64 13.98 10.48 28.529 10.48 43.54 0 14.539-3.56 28.629-9.8 42.208-13.76-30.11-42.158-57.459-80.958-80.28 5.48 0.27 10.82 0.85 16.34 0.85 21.877 0.002 43.258-2.258 63.938-6.318zM384.57 331.86c-182.479 0-334.858 63.29-373.598 147.99-6.22-13.59-9.8-27.699-9.8-42.21 0-102.05 162.14-185.089 365.54-189.748 4.86 29.56 13.54 57.81 25.68 84.16-2.603-0.042-5.203-0.192-7.822-0.192z m-21.8-124.66c-172.66 4.81-314.599 66.22-351.798 147.51-6.22-13.6-9.8-27.7-9.8-42.22 0-102.619 163.98-186.04 369.018-189.82-5.099 23.1-7.98 47.031-7.98 71.66 0 4.32 0.38 8.56 0.56 12.87z m-351.8 22.349c-6.22-13.59-9.799-27.689-9.799-42.2 0-105.028 171.62-190.21 383.4-190.21 14.259 0 28.26 0.45 42.1 1.21-18.52 25.22-33.38 53.291-44.24 83.28-181.52 0.501-332.88 63.57-371.46 147.92z m449.02-269.278c-24.42-2.43-49.56-3.84-75.42-3.84-182.48 0-334.859 63.29-373.6 147.991-6.22-13.592-9.799-27.71-9.799-42.221 0-105.04 171.62-190.2 383.4-190.2 62.42 0 121.18 7.551 173.279 20.691a329.572 329.572 0 0 0-97.86 67.579z"  horiz-adv-x="1024" />

    
    <glyph glyph-name="kuosan" unicode="&#59029;" d="M306.142 567.792c-1.165 7.864-11.651 15.146-18.059 19.807-6.408 4.66-20.389 6.699-28.545 5.242s-15.146-5.825-19.806-12.233c-41.943-58.254-64.662-128.16-64.37-199.812 0-71.944 22.427-141.266 64.37-199.812 6.408-8.738 16.894-16.311 27.67-15.437s32.04 10.777 36.41 20.68c4.369 9.903 3.204 21.263-2.913 30.292a278.012 278.012 0 0 0-53.011 164.568c0 59.128 18.35 115.926 53.011 164.568 4.66 6.117 6.408 14.273 5.243 22.137zM128.175 379.34c0 115.343 42.235 226.9 118.548 313.99 7.281 8.156 9.32 19.515 5.825 29.71-3.495 10.194-23.884 20.68-34.661 23.01-10.777 2.039-21.554-4.37-28.836-12.816C103.417 635.658 55.94 509.83 55.649 379.34c0-129.907 47.477-255.736 133.693-354.186 7.282-8.156 18.059-14.855 28.836-12.816 10.777 2.039 30.875 12.816 34.661 23.01 3.496 10.195 1.165 21.555-6.116 29.71-76.313 87.09-118.548 198.938-118.548 314.282z m603.223 187.287c-1.165-7.864 0.582-16.02 5.243-22.428 34.952-48.35 53.01-105.44 53.01-164.568 0-59.128-18.64-116.509-53.01-164.568-6.117-8.738-7.282-20.39-2.913-30.292 4.369-9.904 25.632-19.516 36.409-20.68 10.777-1.166 21.263 6.699 27.67 15.437 42.235 58.836 64.371 127.868 64.371 199.812 0 71.652-22.427 141.849-64.37 199.812-4.66 6.699-11.943 11.068-19.807 12.233-7.864 1.165-21.845-0.583-28.545-5.243-6.407-4.369-16.893-11.65-18.058-19.515zM790.817 65.35c-7.282-8.156-9.612-19.516-6.117-29.71s23.885-20.68 34.662-23.01c10.777-2.04 21.554 4.66 28.835 12.815 86.217 98.45 133.694 223.988 133.694 354.186 0 130.198-47.477 256.027-133.694 354.186-7.281 8.155-18.058 14.854-28.835 12.816s-30.875-12.816-34.662-23.01c-3.495-10.195-1.165-21.555 5.826-29.71 76.313-87.382 118.547-198.647 118.547-313.99 0.291-115.927-41.943-227.775-118.256-314.574zM518.77 591.384c-75.73 0-145.636-40.487-183.501-106.023s-37.865-146.509 0-212.045 107.77-106.023 183.5-106.023c117.092 0 212.046 94.955 212.046 212.046 0 117.09-94.954 212.045-212.045 212.045z"  horiz-adv-x="1024" />

    
    <glyph glyph-name="CCtongxin" unicode="&#59030;" d="M992.256 371.2c-121.856-83.456-480.256-326.144-614.4-416.256-12.8-6.656-25.6-6.656-32.256 0-6.144 6.656-19.456 19.456-19.456 25.6v192H38.4c-6.656 0-19.456 6.656-25.6 6.656s-6.656 12.8-6.656 25.6c0 6.656 6.656 19.456 6.656 25.6s12.8 6.656 25.6 6.656h352.256v-192l512 352.256-512 352.256v-192H38.4c-6.656 0-19.456 6.656-25.6 6.656-6.656 12.8-6.656 19.456-6.656 25.6 0 6.656 6.656 19.456 6.656 25.6s12.8 6.144 25.6 6.144h288.256V819.2c0 12.8 6.656 25.6 19.456 25.6s25.6 6.656 32.256 0c134.656-89.6 493.056-339.456 614.4-416.256 6.656-6.656 12.8-12.8 12.8-25.6-0.512-12.8-7.168-25.6-13.312-31.744zM0 396.8c0 19.456 12.8 32.256 32.256 32.256h576c19.456 0 32.256-12.8 32.256-32.256 0-12.8-12.8-32.256-32.256-32.256H32.256c-12.8 0-32.256 19.456-32.256 32.256z"  horiz-adv-x="1024" />

    
    <glyph glyph-name="loudong" unicode="&#59032;" d="M512 896C230.4 896 0 665.6 0 384s230.4-512 512-512 512 230.4 512 512S793.6 896 512 896z m0-960C268.8-64 64 134.4 64 384 64 627.2 262.4 832 512 832c243.2 0 448-198.4 448-448 0-243.2-204.8-448-448-448zM780.8 326.4c6.4 19.2 6.4 38.4 6.4 57.6 0 153.6-121.6 275.2-275.2 275.2S236.8 537.6 236.8 384v-6.4c-32-25.6-51.2-57.6-51.2-102.4 0-70.4 57.6-128 128-128 12.8 0 25.6 0 44.8 6.4 44.8-25.6 96-44.8 153.6-44.8 76.8 0 147.2 32 192 83.2 19.2-19.2 38.4-38.4 70.4-38.4 51.2 0 89.6 38.4 89.6 89.6 0 44.8-38.4 83.2-83.2 83.2zM512 179.2c-38.4 0-70.4 12.8-96 25.6 12.8 19.2 25.6 44.8 25.6 76.8 0 70.4-57.6 128-128 128h-6.4c6.4 96 96 179.2 204.8 179.2 115.2 0 204.8-89.6 204.8-204.8S627.2 179.2 512 179.2z"  horiz-adv-x="1024" />

    
    <glyph glyph-name="neiwangtance" unicode="&#59034;" d="M693.93 492.885a73.216 73.216 0 1 0 73.217 73.216 73.387 73.387 0 0 0-73.216-73.216zM512 896a512 512 0 1 1 512-512A512 512 0 0 1 512 896z m-18.261-949.93a438.613 438.613 0 0 0-419.67 419.669h146.262a292.523 292.523 0 0 1 273.066-273.067z m0 219.477a220.672 220.672 0 0 0-200.192 200.192h148.138a71.85 71.85 0 0 1 52.054-52.054z m0 288.938a73.216 73.216 0 0 1-52.054-52.053H293.547a220.672 220.672 0 0 0 200.192 200.021z m0 221.867a292.523 292.523 0 0 1-273.067-273.067H74.069A438.613 438.613 0 0 0 493.74 821.931z m35.328-73.899h0.853a223.232 223.232 0 0 0 56.661-12.8A108.544 108.544 0 0 0 626.86 652.8a313.856 313.856 0 0 1-96.939 23.723V822.784a437.59 437.59 0 0 0 274.261-111.616l-52.053-53.077a100.523 100.523 0 0 0 27.477-24.747l51.2 51.2a437.077 437.077 0 0 0 119.467-282.453h-145.75a288.939 288.939 0 0 1-22.869 96.938 108.544 108.544 0 0 0-63.146-40.277 232.277 232.277 0 0 0 12.8-56.661H583.339a72.533 72.533 0 0 1-11.947 23.722l53.93 53.931a142.677 142.677 0 0 0-24.746 27.477l-57.515-57.685a60.416 60.416 0 0 1-13.653 4.608zM730.453 365.74a220.672 220.672 0 0 0-200.192-200.192V312.66a72.704 72.704 0 0 1 53.078 53.078z m-200.192-419.67V92.331a292.523 292.523 0 0 1 273.067 273.066h146.261A437.93 437.93 0 0 0 530.261-53.93z"  horiz-adv-x="1024" />

    
    <glyph glyph-name="wangluotance" unicode="&#59035;" d="M591.644 839.111H91.022c-18.83 0-34.133-16.384-34.133-36.58v-837.12c0-20.138 15.303-36.522 34.133-36.522h500.622c18.83 0 34.134 16.384 34.134 36.58V802.531c0 20.195-15.303 36.58-34.134 36.58z m-42.666-82.261v-143.986H133.746V756.85h415.232zM133.746 11.207V539.648h415.232v-528.44H133.746z m594.887 581.461a8.078 8.078 0 0 0 12.288-0.34c73.33-85.448 73.33-217.544 0-302.991a8.078 8.078 0 0 0-12.288-0.285l-42.269 45.34a9.557 9.557 0 0 0-0.34 12.573 149.618 149.618 0 0 1 0 187.847 9.557 9.557 0 0 0 0.34 12.573l42.269 45.283z m210.546 2.902c56.32-148.935 25.941-319.431-77.597-435.655-1.593-1.764-3.754-2.788-6.087-2.845s-4.494 0.967-6.087 2.73l-42.212 45.341a9.557 9.557 0 0 0-0.17 12.743c111.104 125.725 111.104 322.56 0 448.285a9.671 9.671 0 0 0 0.17 12.8l42.212 45.227a8.078 8.078 0 0 0 6.087 2.73 8.343 8.343 0 0 0 6.087-2.844A410.738 410.738 0 0 0 939.18 595.57z"  horiz-adv-x="1024" />

    
    <glyph glyph-name="zaoshougongji" unicode="&#59036;" d="M512 896L63.991 640.128v-16.062l47.953-27.688 95.952-54.816v25.073L93.547 631.957 501.494 864.95v-0.047L512 870.973l11.44-6.63v0.093l406.546-232.199-113.602-64.901v-25.074l121.68 69.524v-0.046l21.945 12.653v15.735L512 896z m426.064-755.101L847.06 88.93l21.945-12.514 91.003 51.968V347.604h-21.945v-206.705zM762.782 423.71L512.233 280.414 261.124 423.711h-76.107v-76.107l76.2-43.517 146.1-83.439-79.096-45.15-70.925-40.576-50.334 28.762-21.945-12.513 93.057-53.136-33.759-19.143-46.692-26.708 22.18-12.42 80.216 45.805 93.757-53.37 21.945 12.514-53.695 30.677 150.207 85.4 150.022-85.68-53.696-30.677 21.945-12.513 93.757 53.555 80.217-45.804 12.187 6.957v-0.42l9.945 5.696-45.151 25.774-35.252 19.89 92.87 53.556-21.945 12.514-50.428-28.716-70.925 40.482-79.096 45.151 146.1 83.438 76.294 43.61v76.108h-76.295z m-555.867-63.594v41.65h48.513l38.054-21.76 196.106-112.06-60.466-34.972z m492.086-211.514l43.61-24.887 2.335-1.307-60.7-34.74-64.621 36.654-85.727 48.98 60.7 34.739zM817.225 360.07l-222.44-127.095-21.945-12.56-60.7-34.739-21.945-12.56-85.913-48.746-64.248-36.7-60.7 34.739 2.335 1.307 43.797 24.887 104.076 59.439 188.542 107.671 112.527 64.295 38.054 21.758h48.7zM85.936 347.604H63.991v-219.219l91.797-52.435 21.898 12.56-91.75 52.389V347.604z m438.25-444.04v0.093l-11.439-6.63-10.506 6.07v-0.047L281.95 28.838l-21.945-12.513L512.747-128 765.21 16.185l-21.945 12.513-219.078-125.134z m70.972 473.922v-0.046 0.046zM512.233 805.838L306.79 686.774V448.13l11.626-6.677 27.689 15.969 27.688-15.969v-31.89l27.595 15.922 27.688-15.969v-31.797l27.548 15.922 27.595-16.156v-31.75l28.015-16.155 27.595 15.922V377.44l27.689 15.968 27.688-15.968v31.937l27.688 15.969 27.689-15.969v32.03l27.688 15.97 27.688-15.97 11.72 6.771V686.774zM417.45 474.325l-73.306 42.957v86.38l73.773 43.423 73.306-43.423v-86.38z m121.866-17.229l-27.082-14.988-26.847 14.988V486.98l26.847 14.895 27.082-14.942z m145.678 60.7l-73.306-42.957-73.54 42.957v86.333l73.307 42.956 73.306-43.423z"  horiz-adv-x="1024" />

    
    <glyph glyph-name="fanhuishangyiye" unicode="&#59023;" d="M504.840603 568.110346 453.024145 619.554023 220.570433 388.775549 453.024145 157.994163 504.840603 209.439299 360.844933 352.399027 789.878748 352.399027 789.878748 425.152071 360.844933 425.152071 504.840603 568.110346ZM969.384561 583.461238C944.010542 643.022699 907.692856 696.503461 861.439836 742.425182 815.186816 788.345448 761.315579 824.401857 701.323976 849.593325 639.194061 875.682566 573.216927 888.910525 505.226057 888.910525 437.235186 888.910525 371.258055 875.681112 309.128138 849.593325 249.135071 824.401857 195.265301 788.343993 149.01228 742.425182 102.759259 696.503461 66.440107 643.022699 41.066092 583.461238 14.787798 521.778298 1.463984 456.277278 1.463984 388.774094 1.463984 321.270912 14.787798 255.769892 41.066092 194.085494 66.440107 134.525486 102.759259 81.043272 149.01228 35.121551 195.265301-10.798715 249.135071-46.855122 309.128138-72.046592 371.258055-98.135834 437.235186-111.363794 505.226057-111.363794 573.216927-111.363794 639.194061-98.13438 701.323976-72.046592 761.317043-46.855122 815.186816-10.797261 861.439836 35.121551 907.692856 81.043272 944.010542 134.525486 969.384561 194.085494 995.664317 255.769892 1008.988129 321.270907 1008.988129 388.774094 1008.988129 456.277279 995.662853 521.779752 969.384561 583.461238L969.384561 583.461238ZM809.621908 86.566682C728.314552 5.84427 620.211543-38.610749 505.224589-38.610749 390.237634-38.610749 282.134625 5.845724 200.827269 86.566682 119.519912 167.290552 74.742754 274.615839 74.742754 388.774096 74.742754 502.932353 119.519912 610.25764 200.827269 690.980052 282.136091 771.702463 390.239099 816.157483 505.224589 816.157483 620.210079 816.157483 728.314552 771.701009 809.621908 690.980052 890.929265 610.256185 935.707889 502.932351 935.707889 388.774096 935.707889 274.615839 890.929265 167.290552 809.621908 86.566682L809.621908 86.566682Z"  horiz-adv-x="1024" />

    
    <glyph glyph-name="biaozhuwenben1" unicode="&#59026;" d="M894.976 577.536H747.52c-71.168 0-129.024 57.856-129.024 129.024V849.92c0 18.432 15.36 33.792 33.792 33.792s33.792-15.36 33.792-33.792v-143.36c0-33.792 27.648-61.44 61.44-61.44h146.944c18.432 0 33.792-15.36 33.792-33.792 1.024-18.432-14.336-33.792-33.28-33.792zM524.288-60.928H189.44c-71.168 0-129.024 57.856-129.024 129.024V754.688C60.416 825.856 118.272 883.712 189.44 883.712h462.848c18.432 0 33.792-15.36 33.792-33.792s-14.848-33.792-33.792-33.792H189.44c-34.304 0-61.44-27.648-61.44-61.44v-686.592c0-33.792 27.648-61.44 61.44-61.44h334.336c18.432 0 33.792-15.36 33.792-33.792 0-18.944-14.848-33.792-33.28-33.792zM713.728-123.904zM987.648 149.504c0 150.528-122.88 273.408-273.92 273.408s-273.92-122.88-273.92-273.408 122.88-273.408 273.92-273.408 273.92 122.88 273.92 273.408z m-273.92-206.848c-114.176 0-206.848 92.672-206.848 206.336s93.184 206.336 206.848 206.336 206.848-92.672 206.848-206.336-92.672-206.336-206.848-206.336zM895.488 397.312c-18.432 0-33.792 15.36-33.792 33.792V597.504l-229.888 226.304c-13.312 13.312-13.824 34.304-0.512 47.616s34.304 13.824 47.616 0.512l249.856-245.76v-194.56c0.512-18.944-14.848-34.304-33.28-34.304zM535.04 474.112H262.144c-18.432 0-33.792 15.36-33.792 33.792s15.36 33.792 33.792 33.792h272.896c18.432 0 33.792-15.36 33.792-33.792 0-18.944-14.848-33.792-33.792-33.792zM373.248 287.232H262.144c-18.432 0-33.792 15.36-33.792 33.792s15.36 33.792 33.792 33.792h111.104c18.432 0 33.792-15.36 33.792-33.792 0-18.944-14.848-33.792-33.792-33.792zM686.08 38.912c-8.704 0-16.896 3.072-23.552 9.728l-80.384 79.872c-12.8 12.8-13.312 33.792 0 47.104 12.8 12.8 33.792 13.312 47.104 0l57.344-56.832 97.792 95.744c13.312 12.8 34.304 12.8 47.104-0.512 12.8-13.312 12.8-34.304-0.512-47.104l-121.344-118.784c-6.656-6.144-15.36-9.216-23.552-9.216z"  horiz-adv-x="1024" />

    
    <glyph glyph-name="daochu" unicode="&#59024;" d="M624.071982 192.35211H407.604016c-13.304998 0-23.539996-10.746998-23.539996-23.539996v-80.855988c0-13.304998 10.746998-23.539996 23.539996-23.539996H623.559983c8.699999 0 15.863998-7.164999 15.863997-15.863998v-113.095982c0-12.792998 14.839998-20.469997 25.586996-13.304998l275.829957 192.92697c9.211999 6.652999 9.211999 19.957997 0 26.610996L665.523976 334.617088c-10.745998 7.675999-25.586996 0-25.586996-13.305998v-113.094983c0-8.699999-7.163999-15.863998-15.863998-15.863997zM96.464065 896c-17.910997 0-32.239995-14.328998-32.239995-32.239995v-941.096853c0-28.145996 22.516996-50.662992 50.662992-50.662992h186.785971a18.345997 18.345997 0 0 1 18.422997 18.422997v91.089986a18.345997 18.345997 0 0 1-18.422997 18.422997h-91.089986a18.345997 18.345997 0 0 0-18.422997 18.422997V749.640023a18.345997 18.345997 0 0 0 18.422997 18.422997h282.993956A18.345997 18.345997 0 0 0 512 749.641023v-186.785971c0-28.145996 22.516996-50.662992 50.662992-50.662992h186.785971a18.345997 18.345997 0 0 0 18.422997-18.422997v-91.089986a18.345997 18.345997 0 0 1 18.422997-18.422997h91.089986a18.345997 18.345997 0 0 1 18.422997 18.422997V568.484051c0 5.116999-2.047 9.722998-5.629999 13.304998L581.598989 890.371001C578.01399 893.953 573.40799 896 568.290991 896H96.464065z"  horiz-adv-x="1024" />

    
    <glyph glyph-name="diwei" unicode="&#59012;" d="M865.205797 794.589372S744.502415 810.91401 643.091787 854.446377 491.223188 892.537198 383.876329 854.446377C277.024155 816.355556 164.235749 796.07343 164.235749 796.07343c-27.207729-5.936232-46.005797-31.659903-43.037681-59.362319 0 0 56.394203-510.021256 137.522705-647.049275 85.580676-129.607729 211.725604-180.560386 211.725604-180.560387 24.239614-12.861836 64.803865-12.861836 89.538164-0.989372 0 0 119.71401 42.542995 202.32657 181.549759 84.096618 127.628986 145.932367 647.049275 145.932367 647.049275 3.462802 27.702415-15.335266 52.931401-43.037681 57.878261zM841.955556 673.391304c-12.36715-86.075362-26.713043-171.656039-43.037682-256.742029-30.175845-155.331401-54.415459-261.688889-88.548792-309.178744 0 0-42.542995-56.394203-63.814493-78.655072-24.7343-26.218357-57.878261-48.479227-88.548792-66.782609-9.89372-5.936232-20.282126-10.883092-30.670531-15.829951l-4.452174-1.484058-2.47343-0.989372c-2.47343-0.494686-4.94686-0.494686-7.42029 0l-0.989372 0.494686-4.94686 1.978744c-12.36715 5.441546-24.239614 11.872464-35.617391 18.798067-33.143961 19.78744-63.319807 43.037681-91.022222 69.750725-22.26087 21.271498-46.995169 45.016425-63.814493 70.740096-29.186473 44.027053-60.351691 156.815459-88.548792 307.694686C207.768116 522.512077 183.033816 736.216425 183.033816 736.216425c9.399034 1.978744 23.250242 4.452174 33.638648 6.925604 63.319807 14.84058 126.639614 39.080193 188.475362 60.351691 104.378744 36.606763 130.597101 37.101449 210.736232 2.47343 17.808696-7.914976 37.101449-14.84058 56.394203-21.766184 49.468599-17.31401 131.091787-37.596135 153.352657-41.553623 9.399034-1.484058 25.723671-7.914976 25.723671-7.914976-2.968116-20.776812-5.936232-37.596135-9.399033-61.341063zM664.857971 436.931401c0 27.702415-22.26087 49.963285-49.963285 49.963285H410.094686c-27.702415 0-49.963285-22.26087-49.963285-49.963285s22.26087-49.963285 49.963285-49.963285h204.8c27.702415 0 49.963285 22.26087 49.963285 49.963285z"  horiz-adv-x="1024" />

    
    <glyph glyph-name="shixian" unicode="&#59013;" d="M576 640v-64H320v64h256m32 64H288a32 32 0 0 1-32-32v-128a32 32 0 0 1 32-32h320a32 32 0 0 1 32 32V672a32 32 0 0 1-32 32z m-32-320v-64H320v64h256m32 64H288a32 32 0 0 1-32-32v-128a32 32 0 0 1 32-32h320a32 32 0 0 1 32 32V416a32 32 0 0 1-32 32zM288 192a32 32 0 0 1-32-32v-64a32 32 0 0 1 64 0v64a32 32 0 0 1-32 32zM768 832H128a64 64 0 0 1-64-64v-768a64 64 0 0 1 64-64h448v64H128V768h640v-256h64V768a64 64 0 0 1-64 64zM608 0h-64a32 32 0 0 1 0-64h64a32 32 0 0 1 0 64z m192 576a32 32 0 0 1-32-32v-64a32 32 0 0 1 32-32 32 32 0 0 1 32 32v64a32 32 0 0 1-32 32zM448 192a64 64 0 1 1 64-64 64 64 0 0 1-64 64zM800 384q32 0 32-32v-128q0-32-32-32t-32 32V352q0 32 32 32zM736 128q32 0 32-32v-128q0-32-32-32t-32 32V96q0 32 32 32zM768 224q0 32 32 32h128q32 0 32-32t-32-32H800q-32 0-32 32zM576 96q0 32 32 32h128q32 0 32-32t-32-32H608q-32 0-32 32z"  horiz-adv-x="1024" />

    
    <glyph glyph-name="zhongwei" unicode="&#59014;" d="M874.146544 796.396931S749.515011 813.252835 644.804092 858.201912s-156.810986 39.330443-267.651324 0C266.312429 819.382254 150.364241 797.929286 150.364241 797.929286c-28.093173-6.12942-47.503002-32.690238-44.438292-61.294197 0 0 58.229487-526.619304 141.998221-668.106741 88.3658-133.825662 218.615967-186.436514 218.615968-186.436514 25.028464-13.280409 66.912831-13.280409 92.452079-1.02157 0 0 123.609963 43.927507 208.911053 187.458084 86.833445 131.782522 150.681566 668.106741 150.681566 668.106741 3.575495 28.603958-15.834334 54.653992-44.438292 59.761842zM849.628865 671.254613c-12.769624-88.876585-27.582388-177.242385-44.438292-265.097399-31.157883-160.386481-56.186347-270.205249-91.43051-319.240607 0 0-43.927507-58.229487-65.891261-81.21481-25.539249-27.071603-59.761842-50.056927-91.43051-68.955971-10.215699-6.12942-20.942184-11.237269-31.668668-16.345119l-4.597064-1.532355-2.553925-1.02157c-2.553925-0.510785-5.10785-0.510785-7.661775 0l-1.02157 0.510785-5.10785 2.04314c-12.769624 5.618635-25.028464 12.258839-36.776517 19.409829-34.222593 20.431399-65.380476 44.438292-93.984435 72.02068-22.985324 21.963754-48.524572 46.481432-65.891261 73.042251-30.136313 45.459862-62.315766 161.918836-91.43051 317.708252-20.942184 112.883478-46.481432 333.542586-46.481432 333.542585 9.704914 2.04314 24.006894 4.597065 34.733378 7.15099 65.380476 15.323549 130.760952 40.352013 194.609074 62.315766 107.775629 37.798088 134.847232 38.308873 217.594397 2.553925 18.388259-8.17256 38.308873-15.323549 58.229487-22.474539 51.078497-17.877474 135.358017-38.819658 158.34334-42.905937 9.704914-1.532355 26.560818-8.17256 26.560819-8.17256-2.553925-21.452969-6.12942-38.819658-9.704915-63.337336zM512.510785 643.16144C483.906827 643.16144 460.921503 620.176116 460.921503 591.572158V385.21503c0-28.603958 22.985324-51.589282 51.589282-51.589282s51.589282 22.985324 51.589282 51.589282V591.572158c0 28.603958-22.985324 51.589282-51.589282 51.589282zM512.510785 178.857902c28.603958 0 51.589282 22.985324 51.589282 51.589282s-22.985324 51.589282-51.589282 51.589282S460.921503 259.051142 460.921503 230.447184s22.985324-51.589282 51.589282-51.589282z"  horiz-adv-x="1024" />

    
    <glyph glyph-name="xinxifuwuqi" unicode="&#59021;" d="M822.272 824.32v-498.176c-145.408-17.92-254.976-139.264-254.976-290.304v-1.024c0-7.68 0.512-15.36 1.536-23.552H71.68v542.72L289.28 824.32h532.992m71.68 71.68H254.976L0 578.56v-639.488h663.552c-15.36 29.696-23.552 62.464-24.064 96.256 0 124.928 96.256 221.184 221.184 221.184 9.728 0 19.456 0 33.792-4.608V896h-0.512zM494.08 771.072h254.976v-130.048H494.08zM494.08 516.096h254.976v-130.048H494.08zM868.352 157.184c-72.192 0-129.536-57.856-129.536-129.536 0-72.192 57.856-130.048 129.536-130.048 72.192 0 130.048 57.856 130.048 130.048-4.608 71.68-57.856 129.536-130.048 129.536z"  horiz-adv-x="1024" />

    
    <glyph glyph-name="gaowei" unicode="&#59022;" d="M519.314286-114.285714c-15.085714 0-30.171429 5.028571-42.514286 14.628571-125.257143 90.971429-230.857143 210.742857-304.914286 345.6-76.8 137.142857-125.257143 286.171429-143.542857 442.514286-4.114286 25.142857 6.4 50.285714 26.971429 65.371428 14.171429 11.428571 28.342857 24.228571 42.971428 39.771429l1.371429 1.371429c13.714286 12.342857 24.685714 25.6 33.828571 39.314285l1.371429 2.285715 1.828571 1.828571c13.714286 15.542857 33.371429 24.228571 54.4 25.142857H841.142857c21.942857 0.457143 43.428571-9.142857 57.6-26.514286 6.4-8.228571 12.8-15.085714 18.742857-22.4 6.857143-7.771429 13.714286-15.542857 20.114286-23.771428 14.628571-15.085714 28.8-27.885714 42.514286-38.857143 17.371429-14.171429 27.428571-35.657143 26.514285-58.057143v-1.828571c-14.628571-159.085714-64-315.428571-143.085714-452.114286l-59.885714-103.314286v10.514286c-66.742857-94.171429-147.657143-176.914286-240.914286-247.314286-13.257143-9.142857-28.342857-14.171429-43.428571-14.171428zM143.542857 748.8c-16.914286-17.371429-32.914286-32-48.914286-44.8l-1.371428-0.914286c-1.828571-1.828571-1.828571-3.657143-1.828572-4.571428v-1.371429c17.371429-148.571429 63.085714-289.828571 136.228572-419.657143 69.942857-127.085714 169.142857-239.542857 287.085714-325.485714l1.371429-0.914286c1.828571-1.828571 4.571429-1.828571 6.857143 0l0.914285 0.457143c116.571429 87.771429 212.114286 196.114286 283.885715 322.285714l18.285714 32.457143c63.542857 120.228571 103.771429 254.628571 116.114286 391.314286 0 1.828571-0.914286 4.114286-2.742858 5.485714-16 13.257143-32.457143 27.885714-49.371428 45.714286l-1.371429 1.371429-1.371428 1.828571c-5.028571 6.857143-10.971429 13.714286-17.828572 21.485714-6.4 7.314286-13.257143 15.085714-20.571428 24.228572-1.371429 1.828571-3.657143 2.742857-5.942857 2.742857H193.371429c-2.285714 0-5.485714-0.914286-7.771429-2.742857-11.428571-17.828571-25.6-33.828571-42.057143-48.914286zM334.628571 372.114286H521.142857l-50.285714-193.371429L749.714286 484.571429h-152.228572l80 152.228571H445.257143z"  horiz-adv-x="1024" />

    
    <glyph glyph-name="weixieyujingx" unicode="&#59031;" d="M539.30666667 117.39591111000004a103.76533333 103.76533333 0 1 0-54.61333334 0V318.64604445a121.96977778 121.96977778 0 0 0-94.51747555 124.22712888l-187.56039111 86.70776889a103.76533333 103.76533333 0 1 0 24.81265778 48.69688889l177.63896888-82.12024889A121.89696 121.89696 0 0 0 512 559.41802667a121.86055111 121.86055111 0 0 0 104.34787555-58.83676445l178.47637334 89.67509333a103.76533333 103.76533333 0 1 0 19.11466666-51.51857777l-180.46065777-90.65813333a121.96977778 121.96977778 0 0 0-94.17159111-129.45180445v-201.23192889zM751.44305778 410.57848889a27.30666667 27.30666667 0 1 0 45.14702222 30.74730666l121.51466667-178.47637333a46.42133333 46.42133333 0 0 0-39.03032889-71.54346667h-261.41582223a27.30666667 27.30666667 0 0 0 0 54.61333334h245.92384l-112.13937777 164.6592z m-346.43057778-164.6592a27.30666667 27.30666667 0 0 0 0-54.61333334H145.45351111a46.42133333 46.42133333 0 0 0-38.70264889 72.05319112c36.79118222 55.55996445 111.37479111 161.65546667 120.38599111 175.63648a27.30666667 27.30666667 0 1 0 45.92981334-29.54581334c-9.04760889-14.07203555-74.05568-106.60522667-112.28501334-163.53052444h244.19441778z m106.96931555 547.04355556l-133.43857777-207.02094223a27.30666667 27.30666667 0 1 0-45.8752 29.58222223l140.30165333 217.72515555a46.42133333 46.42133333 0 0 0 78.06065778-0.03640889l140.10140444-217.70695111a27.30666667 27.30666667 0 1 0-45.91160888-29.56401778L511.98179555 792.94464z m0-422.78001778a67.32003555 67.32003555 0 1 1 0 134.64007111 67.32003555 67.32003555 0 0 1 0-134.64007111z m386.2072889 180.02375111a49.152 49.152 0 1 1 0 98.304 49.152 49.152 0 0 1 0-98.304z m-772.3781689 0a49.152 49.152 0 1 1 0 98.304 49.152 49.152 0 0 1 0-98.304zM512-31.88053333000005a49.152 49.152 0 1 1 0 98.304 49.152 49.152 0 0 1 0-98.304z"  horiz-adv-x="1024" />

    
    <glyph glyph-name="hengxiangshentou" unicode="&#59167;" d="M435.654351 843.435441H189.753294c-33.951851 0-61.473544-27.521693-61.473544-61.473544v-122.95397h61.473544V781.961897h245.901057v-799.176717H189.753294v122.953969H128.27975v-122.953969c0-33.951851 27.521693-61.473544 61.473544-61.473544h245.901057c33.951851 0 61.473544 27.521693 61.473545 61.473544V781.961897c0 33.951851-27.519973 61.473544-61.473545 61.473544zM861.735715 105.739149v-122.953969H615.838098V781.961897h245.897617v-122.95397h61.475265V781.961897c0 33.951851-27.521693 61.473544-61.475265 61.473544H615.838098c-33.953571 0-61.475264-27.521693-61.475264-61.473544v-799.176717c0-33.951851 27.521693-61.473544 61.475264-61.473544h245.897617c33.953571 0 61.475264 27.521693 61.475265 61.473544v122.953969h-61.475265zM891.295862 360.418455h-161.127224a30.745373 30.745373 0 0 0-26.622022 15.370107 30.757415 30.757415 0 0 0 0 30.740212 30.748814 30.748814 0 0 0 26.622022 15.364946h165.491405l-62.092821 62.092821c-11.647565 12.058696-11.480704 31.232194 0.375006 43.089624 11.860871 11.857431 31.032649 12.019131 43.091345 0.369846l112.434864-112.371217a30.616357 30.616357 0 0 0 0-43.464631l-112.434864-112.436584c-12.01569-12.001929-31.491946-11.988167-43.493875 0.029243-12.000208 12.020851-11.986447 31.495386 0.029244 43.497315l57.787127 57.721759h-0.060207zM130.53667 384.733671h161.125503c16.980226 0 30.740213 13.761707 30.740212 30.735052 0 16.978506-13.761707 30.740213-30.740212 30.740212H126.174209l62.08766 62.087661a30.757415 30.757415 0 0 1 7.98351 29.702924 30.757415 30.757415 0 0 1-51.446421 13.821914l-112.436584-112.376378a30.614637 30.614637 0 0 1 0-43.524838l112.436584-112.376377a30.740213 30.740213 0 1 1 43.462911 43.464631l-57.787127 57.787127 0.061928-0.061928z"  horiz-adv-x="1024" />

    
    <glyph glyph-name="weiguiyonghu" unicode="&#60115;" d="M640 486.4c57.6 38.4 96 108.8 96 185.6C736 793.6 633.6 896 512 896S288 793.6 288 672c0-76.8 38.4-140.8 96-185.6-153.6-57.6-268.8-204.8-268.8-384 0-19.2 12.8-32 32-32s32 12.8 32 32c0 185.6 147.2 339.2 332.8 339.2s332.8-153.6 332.8-339.2c0-19.2 12.8-32 32-32s32 12.8 32 32c0 179.2-115.2 326.4-268.8 384zM352 672C352 761.6 422.4 832 512 832s160-70.4 160-160S601.6 505.6 512 505.6 352 576 352 672zM512 409.6c-70.4 0-134.4-25.6-185.6-76.8-102.4-102.4-102.4-275.2 0-377.6 51.2-57.6 115.2-83.2 185.6-83.2 70.4 0 134.4 25.6 185.6 76.8 102.4 102.4 102.4 275.2 0 377.6-51.2 51.2-115.2 83.2-185.6 83.2z m-140.8-416C300.8 64 294.4 179.2 352 256l281.6-281.6c-83.2-57.6-192-51.2-262.4 19.2z m300.8 25.6L396.8 307.2c76.8 57.6 192 51.2 256-19.2 70.4-76.8 76.8-185.6 19.2-268.8z"  horiz-adv-x="1024" />

    
    <glyph glyph-name="anquan" unicode="&#59010;" d="M897.00649505 649.36638126a42.54758926 42.54758926 0 0 1-48.04943334 40.22458895 355.29682571 355.29682571 0 0 0-48.90527519-3.30110595A364.22203794 364.22203794 0 0 0 541.83193234 793.51468048a42.18080027 42.18080027 0 0 1-59.6644357 0A364.34430093 364.34430093 0 0 0 223.70311646 686.2898642600001a357.98661584 357.98661584 0 0 0-48.90527518 3.30110595 42.66985311 42.66985311 0 0 1-47.92716953-40.22458895C125.89256609 627.97032403 125.28125027 606.2074761700001 125.28125027 584.32236529 125.28125027 194.42505772000004 322.12498346-37.875 515.42308386-37.875c186.32909866 0 383.17283184 232.30005771 383.17283267 622.19736529 0 21.88511088-0.48905283 43.64795791-1.58942147 65.04401597zM535.35198343 403.25058389v-150.75051196a23.23000551 23.23000551 0 0 0-23.23000552-23.23000552 23.23000551 23.23000551 0 0 0-23.23000553 23.23000552V403.25058389a56.36332974 56.36332974 0 1 0 46.82680088 0z"  horiz-adv-x="1024" />

    
    <glyph glyph-name="iconfontweiguiwailian" unicode="&#59028;" d="M688.617022-1.895795c-20.332071 0-36.830837-15.95539-36.830837-35.666314 0-19.72218 16.498766-35.680641 36.830837-35.680641 20.338211 0 36.833907 15.95846 36.833907 35.680641C725.450928-17.850162 708.955232-1.895795 688.617022-1.895795zM975.189829-86.577452 734.050794 374.836429c-12.478196 16.576537-28.949332 24.904203-45.440935 24.904203-16.488533 0-32.962739-8.327666-45.442982-24.904203L402.048307-86.577452c-19.258623-33.20117 7.077186-84.479043 45.052079-84.479043l483.029178 0C968.110597-171.055472 994.445382-119.778622 975.189829-86.577452zM477.400482-108.228565 688.617022 311.249205l211.209376-419.476747L477.400482-108.227542zM651.785162 146.00572l11.533684-119.057583 50.635237 0 11.495822 119.057583c0 21.902846-16.508999 39.690978-36.833907 39.690978C668.296207 185.696698 651.785162 167.908566 651.785162 146.00572zM413.916613 100.134996c-83.96739 0-162.893974 32.662911-222.264153 92.034113-47.047526 47.116087-77.347622 106.46273-87.87028 170.896228 5.218862 22.318308 15.368012 42.705638 31.833009 57.066717 6.971785 7.101745-0.483001 28.240181-32.863479 38.980803 5.656837 39.899732 18.876929 78.026074 38.935778 112.600521 38.607296-6.138814 82.609463 37.225833 93.439112 69.542866 13.96506 10.56666 5.743818 18.829857-8.747221 25.475208 53.91084 40.229237 119.066793 61.999053 187.53621 61.999053 47.727001 0 93.789083-10.589173 135.597281-30.582529-1.623987-25.235754-32.821523-21.858844-49.701982-2.371-8.175193 0.76748-18.809391-1.836835-29.991058-6.640234-33.500998-14.338566-71.538313-47.550992-57.789171-62.966077 24.3772 16.488533 52.001351 10.480702 32.55444-21.988804-26.942629-42.203194-50.073442 15.763009-77.588099-1.315972 13.373589-11.662621-36.021401-28.958542-50.687426-29.749558-29.861098 4.845355 25.408693-21.791305 4.38589-30.9325-61.144592-10.063193 30.188556-43.518143 31.614022 6.005784 56.80475 31.284517 58.68968-67.985394 117.816313-54.196343-16.243963 23.743774 3.421936 51.760874 33.895995 55.356772 55.268768-15.301498-36.634362-42.203194 3.922333-49.328475-4.361331-22.51376-56.626695-28.916587-75.810616-48.953945-61.737086 1.663896-85.260849 91.464131-151.075811 50.115398-44.986587-9.667174-70.266343-72.149227-58.010205-114.090455 20.345374-58.68968 65.376986-63.446008 117.861338-65.747423 48.364521-25.040303 36.154431-114.487497 54.634318-165.611875 10.843976-10.081613 29.820166-25.65531 48.758494-36.103266l131.470287 251.584945c-17.044188-6.115278-39.511899-14.680351-48.116881 0.072655-8.975419 52.494585 28.919656 29.766954 61.176314 24.919553l12.56927 24.050766 2.068102 2.746554c20.712741 27.513634 50.600445 43.294039 81.998549 43.294039 31.399127 0 61.286832-15.779382 81.999572-43.294039l2.068102-2.745531 3.566222-6.825452c0.001023 0.333598 0.013303 0.665149 0.013303 0.998747 0 95.960539-37.358863 186.153724-105.189737 254.009158C600.06829 736.271248 509.876128 773.629087 413.916613 773.629087c-95.960539 0-186.15577-37.357839-254.009158-105.187691C92.075557 600.584939 54.716694 510.392778 54.716694 414.432239c0-95.959515 37.358863-186.176237 105.190761-254.008134 57.850569-57.830103 131.941008-93.503581 211.996299-102.767572l0-40.362266c-25.084305-5.40408-48.073902-25.87839-54.949496-56.664557L50.666448-39.370291l0-72.818469 287.72812 0c-3.441379 9.362228-2.218528 25.816992 4.232394 38.297234l91.842755 175.75284C427.656545 100.37752 420.80551 100.134996 413.916613 100.134996z"  horiz-adv-x="1024" />

    
    <glyph glyph-name="threat_log" unicode="&#59235;" d="M896 224h-192l64 96h-192l-128-192h256l-64-192zM672 704h-384c-17.6 0-32-14.4-32-32s14.4-32 32-32h384c17.6 0 32 14.4 32 32s-14.4 32-32 32zM704 416c0 17.6-14.4 32-32 32h-384c-17.6 0-32-14.4-32-32s14.4-32 32-32h384c17.6 0 32 14.4 32 32zM288 192c-17.6 0-32-14.4-32-32s14.4-32 32-32h64c17.6 0 32 14.4 32 32s-14.4 32-32 32h-64zM479.744 0.064h-32.96l-0.384-0.064h-248v768h563.2v-320h70.4v331.84c0 28.8-25.664 52.16-57.344 52.16h-589.312c-31.68 0-57.344-23.36-57.344-52.16v-791.68c0-28.8 25.664-52.16 57.344-52.16l294.656 0.064c17.562 0.18 31.737 14.423 31.808 31.994 0 17.606-14.464 32.006-32.064 32.006z"  horiz-adv-x="1024" />

    
    <glyph glyph-name="shijianguanli" unicode="&#59001;" d="M177.37728-46.92992c-34.21184 0-47.09888 12.90752-47.09888 47.10912V713.0368c0 34.39616 16.3584 43.63776 50.57024 43.63776h60.78976c11.46368 0 24.18176 14.51008 24.18176 32.27136 0 13.83424-9.344 32.27136-23.01952 32.27136H156.56448c-57.13408 0-90.83904-33.69984-90.83904-90.84416V-15.8208c0-57.1392 36.00896-90.83904 90.83904-90.83904h319.88736s-30.1056 32.41472-43.32032 59.73504H177.37728v-0.00512m0 0zM717.27616 756.67456h69.29408c34.21696 0 43.63264-11.74528 43.63264-45.96224v-248.72448c14.42304-7.02976 49.11104-24.22784 62.22848-33.10592V730.37312c0 57.14432-33.69472 90.83904-90.83904 90.83904h-84.3264c-13.80864 0-24.18688-18.81088-24.18688-33.42336 0.01024-16.21504 12.73344-31.11424 24.19712-31.11424m0 0zM223.47264 646.73792c0-25.70752 17.24416-48.73728 42.95168-48.73728h425.32352c25.5232 0 42.9568 23.01952 42.9568 48.73728 0 25.70752-17.23904 48.72704-42.9568 48.72704H602.9824V800.87552c0 40.86784-33.1008 73.96864-73.96352 73.96864H429.15328c-40.86784 0-73.96864-33.09568-73.96864-73.96864v-105.41056H266.42432c-25.70752 0-42.95168-23.01952-42.95168-48.72704M479.0784 828.61568c27.00288 0 49.00864-22.01088 49.00864-49.00864 0-26.99264-22.00576-49.00352-49.00864-49.00352-26.98752 0-48.99328 22.01088-48.99328 49.00352 0 26.99776 22.00064 49.00864 48.99328 49.00864m0 0z m148.55168-340.92032h-361.216c-25.70752 0-42.95168-23.01952-42.95168-48.72704s17.24928-48.73728 42.95168-48.73728h188.99968c44.7488 45.49632 107.85792 82.85696 172.21632 97.46432m0 0zM223.47264 236.9024c0-25.70752 16.08192-48.73728 41.78432-48.73728h109.23008c4.81792 35.25632 14.34624 69.93408 36.9664 97.4592H266.41408c-25.69728 0.00512-42.94144-23.01952-42.94144-48.72192m0 0z m480.71168 164.43392c-140.34944 0-254.09024-113.73056-254.09024-254.09024 0-140.35456 113.73568-254.09024 254.09024-254.09024 140.35968 0 254.09024 113.73568 254.09024 254.09024 0 140.35968-113.73056 254.09024-254.09024 254.09024m176.05632-193.43872L685.14304 12.8c-6.29248-6.29248-14.61248-9.43104-22.93248-9.43104s-16.64 3.13856-22.93248 9.43104l-110.9504 110.95552c-12.57984 12.57472-12.57984 33.1008 0 45.67552 12.57472 12.57984 33.1008 12.57984 45.68064 0l88.21248-88.20736 172.16512 172.16512c12.57472 12.57472 33.10592 12.57472 45.68064 0 12.93312-12.38528 12.93312-32.91136 0.17408-45.4912m0 0z"  horiz-adv-x="1024" />

    
    <glyph glyph-name="tongxinxitong" unicode="&#59004;" d="M325.948 735.48c-50.471-44.119-82.474-108.988-82.474-181.422 0-71.963 31.732-136.495 81.805-180.679l0.403 0.47c8.703-6.027 26.243 2.273 39.629 19.143 12.789 15.868 17.273 33.74 10.849 41.64l1.002 1.14c-35.013 30.189-57.17 74.71-57.17 124.446 0 46.596 19.282 88.303 50.207 118.294 0.338 0.2 0.67 0.2 1.006 0.464 7.499 5.961 3.55 23.366-9.04 38.76-12.313 15.266-28.183 22.763-35.814 17.273l-0.403 0.47z m0 0M253.183 828.332c-0.736-0.741-1.47-1.476-2.278-2.079-0.133-0.133-0.4-0.199-0.537-0.332-0.33-0.271-0.464-0.603-0.735-0.807-75.712-65.87-123.778-162.87-123.778-271.056 0-107.91 47.729-204.576 123.109-270.386 0.47-0.531 0.874-1.205 1.404-1.67 8.439-6.762 26.447 1.603 40.17 18.744 13.453 16.804 17.739 35.68 9.91 42.775l0.33 0.337c-58.577 51.278-95.662 126.32-95.662 210.2 0 84.686 37.754 160.4 97.133 211.61l-0.332 0.47c5.557 8.166 1.006 25.573-11.446 40.971-12.12 15.262-27.514 23.495-36.818 20.482l-0.47 0.74z m0 0M698.05 372.51c50.471 44.12 82.475 108.988 82.475 181.421 0 71.964-31.732 136.495-81.805 180.68l-0.404-0.47c-8.703 6.026-26.243-2.272-39.629-19.143-12.789-15.868-17.273-33.739-10.849-41.64l-1-1.139c35.01-30.19 57.166-74.711 57.166-124.447 0-46.595-19.28-88.302-50.206-118.293-0.338-0.2-0.67-0.2-1.006-0.466-7.498-5.96-3.55-23.366 9.04-38.76 12.314-15.266 28.183-22.764 35.814-17.274l0.404-0.469z m0 0M770.816 279.658c0.736 0.74 1.472 1.475 2.279 2.078 0.132 0.133 0.398 0.2 0.535 0.331 0.332 0.272 0.465 0.604 0.736 0.808 75.712 65.87 123.778 162.871 123.778 271.056 0 107.91-47.729 204.578-123.109 270.387-0.47 0.532-0.874 1.206-1.405 1.67-8.437 6.762-26.446-1.605-40.17-18.743-13.452-16.804-17.738-35.681-9.908-42.775l-0.332-0.338c58.577-51.277 95.662-126.32 95.662-210.2 0-84.685-37.755-160.399-97.133-211.61l0.331-0.471c-5.557-8.166-1.006-25.572 11.447-40.971 12.12-15.26 27.513-23.494 36.818-20.482l0.471-0.74z m0 0M758.057-8.14l-196.08 473.224c18.275 15.06 30.194 37.554 30.194 63.061 0 45.323-36.75 82.142-82.074 82.142-45.318 0-82.005-36.885-82.005-82.142 0-27.58 13.724-51.947 34.813-66.81L267.29-10.22c-0.197-0.535-0.464-0.998-0.536-1.403l-0.802-1.742 0.2-0.066c-1.273-3.613-2.074-7.429-2.074-11.576-0.067-20.224 16.202-36.424 36.35-36.424a36.256 36.256 0 0 1 36.354 36.349L383.24 91.27h261.146l46.059-108.648c-0.603-2.48-0.802-5.023-0.802-7.704a36.255 36.255 0 0 1 36.35-36.349c20.015 0 36.415 16.2 36.415 36.349 0 6.16-1.742 11.849-4.351 16.942zM510.163 409.189l60.583-143.597H452.791l57.372 143.597z m-109.32-273.803l32.74 82.073h157.584l34.674-82.073H400.844z m0 0"  horiz-adv-x="1024" />

    
    <glyph glyph-name="weixieganzhi" unicode="&#59005;" d="M716.26871445 569.1372703100001L580.94874599 803.5252318299999h-44.49560537L401.1220619 569.1372703100001l-26.3862826 15.2318294L518.85487813 834h79.68101924l144.1190997-249.63090029-26.38628262-15.2318294zM729.61184112-22.859816610000053l-0.11110079 30.46365792 270.65104717 0.92213174 22.1200374 38.60729736-136.11988915 233.93245166 26.34184247 15.33181904L1057.45723877 47.25548057000003l-39.60719912-69.13761592-288.23819853-0.97768125zM389.85650791-22.859816610000053l-288.24930878 0.97768125L62 47.25548057000003l144.97457081 249.14206054 26.33073221-15.33181904L97.18541387 47.13327041000002 119.30545127 8.525973049999948l270.65104717-0.92213174-0.09999053-30.46365791zM370.84727393 237.65889785000002l181.63761679 314.60226153 181.63761593-314.60226152H370.84727393zM895.995408 592.8127098699999l3.89961476-85.08048575a15.24293877 15.24293877 0 0 1 7.12151894-12.22101563l71.83734961-45.11776552-269.41783535-58.63865362zM632.01036903-66l-74.8148326 40.70709053a15.24293877 15.24293877 0 0 1-14.13193799 0.23331006l-75.78140449-38.10734736 89.29118144 260.86312529zM396.62250663 382.24461767l-269.41783534 58.63865274 71.83734961 45.11776641a15.24293877 15.24293877 0 0 1 7.12151805 12.22101561l3.89961564 85.08048575z"  horiz-adv-x="1132" />

    
    <glyph glyph-name="baolipojie" unicode="&#59019;" d="M551.936 530.496l-89.792-90.88a32 32 0 0 1 45.504-44.992l89.792 90.88a32 32 0 1 1-45.504 44.992zM393.344 326.656m-32.064 0a32.064 32.064 0 1 1 64.128 0 32.064 32.064 0 1 1-64.128 0ZM935.936 99.776l-226.496 226.496 85.76 85.824a73.856 73.856 0 0 1-0.384 104.32L627.2 682.752a73.792 73.792 0 0 1-104.32-0.448L220.352 378.56a74.24 74.24 0 0 1 0.832-104.704l166.656-165.44a73.856 73.856 0 0 1 104.32 0.384l82.112 82.176 226.432-226.432a63.936 63.936 0 0 1 90.496 0l44.736 44.736a63.936 63.936 0 0 1 0 90.496z m-470.08 87.168a36.864 36.864 0 0 0-52.16-0.192L299.328 300.224a36.864 36.864 0 0 0-0.192 52.16l250.112 251.84a36.864 36.864 0 0 0 52.16 0.192l115.264-114.432a36.864 36.864 0 0 0 0.192-52.16l-251.008-250.88z m404.736-152.576c-1.984-1.984-4.544-4.416-7.04-6.08s-14.528-10.688-31.744-4.288L619.52 236.288l44.672 44.736 212.288-212.288a33.92 33.92 0 0 0-5.888-34.368zM710.144 32.32a31.872 31.872 0 1 1-63.872 0l0.064-0.448A32 32 0 0 0 614.4 0h-448a32 32 0 0 0-32 32v704a32 32 0 0 0 32 32h448a32 32 0 0 0 31.936-31.552l-0.064-0.192a31.872 31.872 0 0 1 63.808-0.384h0.32V768a64 64 0 0 1-64 64h-512a64 64 0 0 1-64-64v-768a64 64 0 0 1 64-64h512a64 64 0 0 1 64 64v32h-0.32l0.064 0.32z"  horiz-adv-x="1024" />

    
    <glyph glyph-name="yanzhongeyiwenjian" unicode="&#59009;" d="M873.411765 642.590118L650.119529 865.882353H180.705882a30.117647 30.117647 0 0 1-30.117647-30.117647v-903.529412a30.117647 30.117647 0 0 1 30.117647-30.117647h662.588236a30.117647 30.117647 0 0 1 30.117647 30.117647V642.590118zM180.705882 896h481.882353l240.941177-240.941176v-722.82353a60.235294 60.235294 0 0 0-60.235294-60.235294H180.705882a60.235294 60.235294 0 0 0-60.235294 60.235294V835.764706a60.235294 60.235294 0 0 0 60.235294 60.235294zM662.588235 655.058824h210.82353l30.117647-30.117648h-271.058824V896l30.117647-30.117647zM536.214588 550.098824l210.612706-361.773177A30.117647 30.117647 0 0 0 720.775529 143.058824H299.580235a30.117647 30.117647 0 0 0-26.021647 45.266823l210.612706 361.773177a30.117647 30.117647 0 0 0 52.043294 0zM512 203.294118a30.117647 30.117647 0 1 1 0.060235 60.175058A30.117647 30.117647 0 0 1 512 203.294118z m30.117647 120.470588v90.352941c0 18.883765-13.462588 30.117647-30.117647 30.117647-16.624941 0-30.117647-11.233882-30.117647-30.117647v-90.352941c0-18.913882 13.492706-30.117647 30.117647-30.117647s30.117647 11.203765 30.117647 30.117647z"  horiz-adv-x="1024" />

    
    <glyph glyph-name="kaoshengweiguishangbaochaxun" unicode="&#59006;" d="M383.8976 563.2h102.4v-204.8h-102.4v204.8z m102.4-358.4h-102.4v102.4h102.4v-102.4z m307.2512 307.2512h-153.6512V716.8h-409.6v-665.6H456.704c8.0896-18.432 18.7392-35.2768 30.72-51.2H230.2976c-51.2512 0-51.2512 51.2-51.2512 51.2v665.6s0 51.2512 51.2512 51.2512h409.6l204.8-204.8512v-205.9264a255.8464 255.8464 0 0 1-51.1488 30.72V512.0512zM665.4976 307.2a128 128 0 0 0 128.0512-128c0-22.1184-6.144-42.5984-16.0256-60.7744l67.1744-67.2256-51.1488-51.2-67.2256 67.2256a126.8224 126.8224 0 0 0-60.8256-16.0256 128 128 0 0 0 0 256z m0-204.8c12.9024 0 24.5248 3.9936 35.2256 9.6256l31.9488 31.9488c5.632 10.7008 9.6256 22.3232 9.6256 35.2256a76.8 76.8 0 1 1-76.8-76.8z"  horiz-adv-x="1024" />

    
    </font>
</defs>
</svg>
